<svg width="81" height="75" viewBox="0 0 81 75" fill="none" xmlns="http://www.w3.org/2000/svg">
<g clip-path="url(#clip0_69_1698)">
<path d="M40.7097 0C41.9144 0.0567295 43.4404 0.0850943 44.9594 0.202099C48.2628 0.460928 51.5104 1.03531 54.6462 2.16281C57.5515 3.20876 60.2019 4.69437 62.4927 6.80755C64.4901 8.65126 66.044 10.8318 67.2138 13.296C68.4814 15.9658 69.2392 18.7952 69.6861 21.7168C70.161 24.8334 70.2693 27.9712 70.1506 31.1197C70.0318 34.3533 69.6128 37.5408 68.6909 40.6503C67.8843 43.3768 66.711 45.9226 65.0208 48.2024C63.1701 50.6985 60.8619 52.6415 58.1486 54.1093C55.6309 55.4709 52.9491 56.3395 50.166 56.9068C47.973 57.3536 45.7556 57.6018 43.5207 57.7152C41.6141 57.811 39.704 57.8216 37.7974 57.7436C34.6756 57.6159 31.5852 57.2366 28.5576 56.4175C25.3101 55.5418 22.2755 54.2086 19.5937 52.1167C17.2785 50.312 15.4487 48.0889 14.0589 45.49C12.7459 43.0294 11.9044 40.3985 11.3701 37.6613C10.9511 35.5127 10.7311 33.3428 10.6403 31.1552C10.5669 29.3824 10.5739 27.6096 10.6752 25.8403C10.8707 22.4791 11.3806 19.1746 12.4805 15.9835C13.5631 12.8421 15.1589 10.0163 17.4636 7.62303C19.2305 5.78641 21.2838 4.35045 23.5606 3.24777C26.0015 2.06354 28.5716 1.30123 31.2255 0.80485C33.3242 0.414835 35.4368 0.17728 37.5669 0.0921855C38.5063 0.0602751 39.4456 0.0390016 40.7097 0ZM38.1117 2.09545C37.9371 2.09545 37.7974 2.08836 37.6612 2.09545C36.233 2.18054 34.8117 2.34009 33.401 2.59183C30.8798 3.04212 28.4459 3.76897 26.1481 4.93547C23.9063 6.07361 21.9333 7.56985 20.2746 9.48092C18.2493 11.8175 16.8874 14.5192 15.9725 17.4727C15.0856 20.3411 14.6665 23.2946 14.5129 26.2871C14.4326 27.8329 14.4256 29.3788 14.4884 30.9282C14.5757 33.0662 14.7852 35.19 15.2043 37.2926C15.7176 39.888 16.5243 42.3805 17.7779 44.7135C19.5518 48.0145 22.0486 50.585 25.2786 52.4252C25.3555 52.4677 25.4393 52.4961 25.5405 52.5422C25.565 52.45 25.5894 52.3826 25.5999 52.3153C25.6767 51.7905 25.7501 51.2622 25.8269 50.7375C26.0678 49.0781 26.3123 47.4224 26.5532 45.763C26.7977 44.1037 27.0421 42.4479 27.2865 40.7885C27.5554 38.9555 27.8208 37.1224 28.0897 35.2893C28.4075 33.1159 28.7217 30.946 29.0465 28.7761C29.1373 28.1591 29.2176 27.5422 29.4341 26.9465C30.0627 25.2198 30.6563 23.4789 31.2639 21.7451C33.4045 15.629 35.5416 9.50929 37.6821 3.39314C37.8183 2.96412 37.9615 2.54219 38.1117 2.09545ZM55.2363 52.5493C55.362 52.489 55.4563 52.45 55.5436 52.4004C57.9636 51.0211 60.0029 49.2058 61.6336 46.9224C63.1457 44.8057 64.2002 42.4656 64.9301 39.966C65.8205 36.9238 66.2081 33.8037 66.3094 30.641C66.3897 28.1237 66.3094 25.6098 65.9916 23.1067C65.7262 21.0041 65.3037 18.9406 64.6402 16.9302C63.8021 14.4022 62.6149 12.0621 60.9422 9.99149C58.7807 7.32166 56.0674 5.42122 52.9176 4.15189C49.726 2.86484 46.3946 2.28336 42.983 2.0919C42.8922 2.08836 42.8014 2.0919 42.6722 2.0919C42.7281 2.26209 42.7665 2.39328 42.8119 2.52446C43.5242 4.55964 44.2366 6.59481 44.949 8.62998C47.0092 14.5263 49.0625 20.4226 51.1367 26.3119C51.4615 27.2302 51.6675 28.1627 51.8002 29.1235C52.0272 30.7829 52.2786 32.4422 52.5196 34.098C52.764 35.768 53.0119 37.438 53.2599 39.1044C53.5287 40.9375 53.7941 42.7705 54.063 44.6036C54.3808 46.7771 54.6986 48.947 55.0198 51.1169C55.0862 51.5884 55.1595 52.0494 55.2363 52.5493ZM54.6008 52.9358C50.4383 44.1639 46.2969 35.4347 42.1554 26.7054C40.9716 26.7054 39.8123 26.7054 38.632 26.7054C34.4905 35.4347 30.349 44.1639 26.2005 52.9038C26.3367 52.9748 26.4345 53.035 26.5392 53.0847C28.163 53.8682 29.8601 54.4391 31.6061 54.861C34.4381 55.5453 37.3225 55.8041 40.2243 55.8219C42.1903 55.8361 44.1528 55.7049 46.1048 55.4354C48.406 55.1163 50.6514 54.5774 52.8164 53.7122C53.4065 53.4782 53.9862 53.2052 54.6008 52.9358ZM41.8446 22.8514C41.7363 15.902 41.6281 8.98454 41.5163 2.03163C40.7586 2.03163 40.0322 2.03163 39.3094 2.03163C39.2256 2.4961 38.9253 22.5642 38.9986 22.8514C39.924 22.8514 40.8494 22.8514 41.8446 22.8514Z" fill="black"/>
<path d="M60.7574 69.9334C60.7748 69.9653 60.7818 69.9972 60.7958 70.0043C61.6338 70.4333 61.9935 71.1814 62.0389 72.0784C62.0843 72.9967 62.0494 73.9221 62.0459 74.844C62.0459 74.8759 62.0284 74.9114 62.0145 74.9646C61.1729 74.9646 60.3279 74.9646 59.4479 74.9646C59.4409 74.8369 59.4304 74.7128 59.4304 74.5887C59.4304 73.7378 59.4269 72.8868 59.4304 72.0359C59.4304 71.7806 59.385 71.5431 59.1999 71.3516C59.0079 71.153 58.7704 71.0928 58.5015 71.0928C56.9756 71.0963 55.453 71.0928 53.9271 71.0892C53.4626 71.0892 52.9982 71.0892 52.4884 71.0892C52.2893 70.3517 52.0903 69.6178 51.8773 68.8378C52.0274 68.8307 52.1461 68.8236 52.2684 68.8236C54.2937 68.8236 56.3191 68.8236 58.3444 68.8236C58.4596 68.8236 58.5784 68.8271 58.6936 68.8129C59.1057 68.7562 59.406 68.4513 59.4199 68.0329C59.4409 67.455 59.4409 66.8735 59.4234 66.2956C59.4095 65.8453 59.0742 65.5333 58.6342 65.5049C58.5644 65.5014 58.4946 65.5049 58.4247 65.5049C56.0397 65.5049 53.6547 65.5049 51.2662 65.5049C51.1509 65.5049 51.0357 65.5049 50.882 65.5049C50.8751 65.6751 50.8611 65.824 50.8576 65.9729C50.8576 68.82 50.8576 71.6671 50.8576 74.5178C50.8576 74.6667 50.8576 74.8192 50.8576 74.9823C49.9148 74.9823 49.0243 74.9823 48.1374 74.9823C48.0605 74.7022 48.0256 64.0973 48.0989 63.2605C48.1827 63.2499 48.27 63.2322 48.3573 63.2322C52.0135 63.2322 55.6661 63.2393 59.3222 63.2357C60.9878 63.2357 62.224 64.6043 62.2205 66.1112C62.2205 66.7494 62.217 67.3876 62.2275 68.0258C62.2415 68.8271 61.8364 69.359 61.1869 69.7383C61.0472 69.8057 60.9005 69.866 60.7574 69.9334Z" fill="black"/>
<path d="M70.0843 63.2251C71.2576 63.2251 72.4414 63.2251 73.6391 63.2251C75.7832 67.1253 77.9238 71.0183 80.0679 74.9149C79.8164 75 77.634 75.0319 76.8727 74.961C75.242 71.9614 73.6007 68.9477 71.956 65.9304C71.8024 65.9162 71.6662 65.902 71.4846 65.8843C70.5976 67.5507 69.7037 69.2278 68.7818 70.958C68.9634 70.9687 69.0856 70.9793 69.2043 70.9793C70.4614 70.9793 71.7185 70.9864 72.9722 70.9758C73.2236 70.9722 73.3737 71.0431 73.496 71.2736C73.7928 71.8374 74.114 72.3834 74.4248 72.9365C74.4737 73.0251 74.5156 73.1173 74.589 73.2662C74.4144 73.2662 74.2886 73.2662 74.1664 73.2662C72.0608 73.2662 69.9551 73.2733 67.8494 73.2591C67.5666 73.2591 67.4094 73.3478 67.2733 73.596C67.0149 74.0675 66.7215 74.5214 66.4492 74.9752C65.3422 74.9752 64.2632 74.9752 63.1807 74.9752C63.2575 74.6916 69.5291 64.0122 70.0843 63.2251Z" fill="black"/>
<path d="M16.9119 74.9681C16.7617 74.9752 16.6744 74.9823 16.5871 74.9823C15.7246 74.9823 14.8656 74.9752 14.0031 74.9894C13.7691 74.9929 13.6539 74.9114 13.5456 74.7093C12.0196 71.8835 10.4831 69.0647 8.94667 66.2424C8.8908 66.1396 8.82794 66.0403 8.76509 65.9269C8.62541 65.9127 8.48922 65.8985 8.30415 65.8808C7.41719 67.5472 6.52324 69.2243 5.60136 70.9545C5.77246 70.9651 5.89119 70.9758 6.00992 70.9758C7.25306 70.9758 8.4997 70.9864 9.74284 70.9687C10.0397 70.9651 10.2003 71.0609 10.3365 71.3268C10.6158 71.8728 10.9301 72.394 11.2304 72.9294C11.2793 73.018 11.3212 73.1102 11.3945 73.2627C11.2095 73.2627 11.0733 73.2627 10.9371 73.2627C8.84191 73.2627 6.75022 73.2662 4.65503 73.2556C4.38964 73.2556 4.22901 73.3301 4.1033 73.5712C3.8833 73.986 3.6214 74.3796 3.38395 74.7837C3.31411 74.9008 3.24776 74.9858 3.09062 74.9858C2.06747 74.9788 1.04432 74.9823 0.0106991 74.9823C-0.0312047 74.8086 0.0875226 74.7093 0.15387 74.5958C1.3167 72.6209 2.48651 70.646 3.65283 68.6747C4.669 66.9551 5.69215 65.2355 6.70133 63.5123C6.83053 63.2925 6.96323 63.2003 7.21814 63.2038C8.17145 63.218 9.12476 63.2109 10.0816 63.2109C10.1968 63.2109 10.312 63.2109 10.4377 63.2109C12.5923 67.1253 14.7399 71.0254 16.9119 74.9681Z" fill="black"/>
<path d="M43.067 63.2358C44.0203 63.2358 44.9142 63.2358 45.8361 63.2358C45.8466 63.3315 45.8675 63.4201 45.8675 63.5123C45.8675 66.1822 45.8815 68.852 45.864 71.5218C45.8501 73.4861 44.3415 74.9788 42.4035 74.9859C40.1581 74.9894 37.9128 74.993 35.6675 74.9859C33.7923 74.9823 32.2663 73.4648 32.2558 71.5821C32.2418 68.8874 32.2523 66.1928 32.2523 63.5017C32.2523 63.4308 32.2593 63.3599 32.2663 63.2464C33.1812 63.2039 34.0926 63.2358 35.0494 63.2251C35.0494 63.3918 35.0494 63.53 35.0494 63.6683C35.0494 66.2921 35.0494 68.9158 35.0494 71.536C35.0494 71.653 35.0459 71.7736 35.0564 71.8906C35.1053 72.3976 35.4475 72.7663 35.9433 72.8408C36.0586 72.8585 36.1738 72.855 36.2925 72.855C38.1293 72.855 39.9696 72.855 41.8064 72.855C41.9565 72.855 42.1102 72.8479 42.2568 72.8195C42.7178 72.7238 43.032 72.3515 43.067 71.8799C43.0739 71.7736 43.0705 71.6672 43.0705 71.5608C43.0705 68.9371 43.0705 66.3133 43.0705 63.6931C43.067 63.5478 43.067 63.4095 43.067 63.2358Z" fill="black"/>
<path d="M30.269 63.2251C30.269 64.0016 30.269 64.7178 30.269 65.4836C30.1293 65.4872 29.9931 65.4978 29.8604 65.4978C27.0668 65.5014 24.2768 65.5014 21.4832 65.5049C21.3889 65.5049 21.2981 65.5049 21.2038 65.5049C20.5403 65.5156 20.1283 65.9056 20.1248 66.5863C20.1108 68.274 20.1108 69.9653 20.1248 71.653C20.1318 72.3408 20.5508 72.7167 21.2492 72.7202C24.1126 72.7202 26.9726 72.7202 29.836 72.7202C29.9722 72.7202 30.1084 72.7202 30.262 72.7202C30.262 73.4896 30.262 74.2165 30.262 74.9646C30.1468 74.9717 30.0455 74.9858 29.9442 74.9858C26.8713 74.9858 23.8018 74.9929 20.7289 74.9858C18.9166 74.9823 17.4709 73.5818 17.3452 71.7452C17.3382 71.6494 17.3277 71.5573 17.3277 71.4615C17.3277 69.9015 17.3242 68.3414 17.3277 66.7813C17.3312 65.668 17.7363 64.732 18.5883 64.0158C19.182 63.5158 19.8699 63.2464 20.6381 63.2357C21.7206 63.2216 22.8031 63.2286 23.8857 63.2286C25.8621 63.2286 27.8421 63.2286 29.8185 63.2286C29.9617 63.2251 30.0979 63.2251 30.269 63.2251Z" fill="black"/>
</g>
<defs>
<clipPath id="clip0_69_1698">
<rect width="80.0676" height="75" fill="white"/>
</clipPath>
</defs>
</svg>
