<svg width="131" height="23" viewBox="0 0 131 23" fill="none" xmlns="http://www.w3.org/2000/svg">
<path d="M81.5064 0.41265C85.7037 0.480025 88.9914 2.27387 91.2445 5.85315C93.9982 10.2241 93.4641 17.29 87.7648 20.9872C82.7914 24.2127 76.266 23.219 72.5693 18.5701C69.9992 15.3361 69.4735 11.6642 70.842 7.73964C72.2022 3.81507 76.3995 0.303166 81.5064 0.41265ZM73.7793 11.6137C73.6625 16.1362 77.3925 19.6902 81.5898 19.6481C85.1112 19.6144 87.7898 17.1468 88.7745 14.3929C89.2167 13.1549 89.3252 11.8832 89.1834 10.5778C88.7161 6.45952 84.8025 2.6697 79.7373 3.81507C76.4829 4.55619 73.7042 7.65542 73.7793 11.6137Z" fill="black"/>
<path d="M111.997 0.0168457C117.254 5.28891 122.678 10.1651 127.735 15.5383C127.735 10.6536 127.735 5.8279 127.735 0.976934C128.294 0.808497 128.811 0.901137 129.329 0.884293C129.829 0.86745 130.322 0.884293 130.781 0.884293C130.831 0.943246 130.847 0.96009 130.864 0.976934C130.881 0.993777 130.898 1.01062 130.906 1.02746C130.923 1.22117 130.939 1.42329 130.939 1.61699C130.939 8.69975 130.931 15.7741 130.923 22.8568C130.923 22.8905 130.881 22.9242 130.831 23C130.689 22.8737 130.539 22.7558 130.405 22.6294C126.033 18.3933 121.66 14.1571 117.304 9.90407C116.57 9.18821 115.919 8.40498 115.226 7.6386C115.226 7.6386 115.201 7.6386 115.185 7.64702C115.168 7.65544 115.143 7.67228 115.135 7.6807C115.126 7.72281 115.118 7.76492 115.118 7.80703C115.11 12.5822 115.101 17.3658 115.093 22.141C115.093 22.1578 115.076 22.1831 115.043 22.242C114.058 22.242 113.048 22.242 111.997 22.242C111.997 14.9066 111.997 7.55438 111.997 0.0168457Z" fill="black"/>
<path d="M11.1449 0C14.6079 7.50384 17.9957 14.8645 21.4337 22.3094C21.1333 22.3094 20.9414 22.3094 20.7495 22.3094C19.7731 22.3094 18.7968 22.3094 17.7955 22.3094C16.9861 20.465 16.185 18.6459 15.3839 16.8184C12.5801 16.8184 9.80973 16.8184 6.97257 16.8184C6.16315 18.6122 5.35373 20.4229 4.51927 22.2673C3.35938 22.2673 2.19948 22.2673 0.939453 22.2673C4.33569 14.8561 7.71524 7.49542 11.1449 0ZM14.0821 13.8539C14.0488 13.7697 11.1782 6.88063 11.1532 6.8301C10.519 9.30611 9.23395 11.4789 8.32439 13.8539C10.2687 13.8539 12.1462 13.8539 14.0821 13.8539Z" fill="black"/>
<path d="M44.8237 15.4793C46.4926 10.5946 48.6455 6.03844 50.5231 1.38117C50.5898 1.22115 50.6733 1.06956 50.74 0.917967C51.9083 0.917967 53.0431 0.917967 54.2948 0.917967C51.1489 8.31233 48.0364 15.6225 44.9322 22.9242C44.8738 22.9242 44.8488 22.9242 44.8237 22.9242C44.807 22.9242 44.7736 22.9158 44.7736 22.8989C41.7362 15.7825 38.6905 8.65762 35.653 1.54118C35.5779 1.36432 35.5195 1.17904 35.4277 0.951654C36.0369 0.800061 36.6127 0.892701 37.1884 0.875858C37.7559 0.859014 38.315 0.875858 38.9241 0.875858C39.0242 1.09482 39.1327 1.30537 39.2245 1.52434C40.7933 5.30574 42.3621 9.07871 43.9142 12.8685C44.1728 13.4917 44.3648 14.1487 44.5817 14.7887C44.6568 14.9908 44.7236 15.193 44.8237 15.4793Z" fill="black"/>
</svg>
