<svg width="119" height="51" viewBox="0 0 119 51" fill="none" xmlns="http://www.w3.org/2000/svg">
<g clip-path="url(#clip0_69_1723)">
<path d="M19.4346 0.5C46.2313 0.5 72.6938 0.5 99.4298 0.5C98.4879 1.85706 97.7588 3.09349 96.8169 4.14897C94.6294 6.68215 93.5357 9.5772 93.1407 12.8643C92.8369 15.3975 92.1381 17.8703 91.7432 20.4035C91.3786 22.816 89.981 24.2033 87.7024 24.7159C83.9047 25.5905 80.107 26.4349 76.3092 27.2189C71.8431 28.1236 67.3466 28.8173 62.9109 29.8426C59.5081 30.6568 56.2876 29.9029 53.0368 29.2394C46.1401 27.8824 39.2739 26.4047 32.3772 25.0476C29.096 24.4144 27.2123 22.7557 26.8173 19.2877C26.4224 15.9704 25.6628 12.6532 24.9944 9.3661C24.8121 8.4614 24.3868 7.55669 23.9007 6.80277C22.5639 4.78227 21.0752 2.79192 19.4346 0.5ZM23.7184 1.94753C24.6602 3.27443 25.359 4.45054 26.2097 5.47587C27.6073 7.10434 28.1845 9.00422 28.458 11.085C28.8833 14.161 29.5213 17.2069 29.977 20.2829C30.2809 22.3335 31.3442 23.4795 33.4406 23.9017C40.8841 25.3492 48.2972 26.8872 55.7408 28.3347C57.1991 28.6363 58.8093 29.0283 60.2069 28.7569C68.5619 27.2491 76.8561 25.5 85.2111 23.9017C87.429 23.4795 88.5531 22.3034 88.8873 20.1321C89.4341 16.453 90.0722 12.804 90.771 9.15501C90.9229 8.34077 91.2571 7.52654 91.7128 6.83293C92.7458 5.20446 93.9307 3.66647 95.1459 1.88721C71.2659 1.94753 47.6592 1.94753 23.7184 1.94753Z" fill="black"/>
<path d="M35.1724 50.4699C35.1724 46.9415 35.1724 43.775 35.1724 40.307C38.1498 40.4879 41.0968 40.4578 43.9527 40.9101C46.4744 41.272 47.6897 42.991 47.6897 45.313C47.72 47.7557 46.5655 49.4144 43.9223 49.8366C41.1272 50.2889 38.2105 50.2588 35.1724 50.4699ZM36.5699 49.2334C39.0612 49.0223 41.431 48.962 43.7096 48.57C45.5022 48.2684 46.2617 47.0018 46.2617 45.313C46.2313 43.6846 45.5022 42.4783 43.7704 42.1767C41.431 41.7545 39.0308 41.7244 36.5699 41.5133C36.5699 44.1972 36.5699 46.4892 36.5699 49.2334Z" fill="black"/>
<path d="M16.8218 49.927C17.399 49.0223 17.9763 48.0875 18.5839 47.1828C19.8296 45.2829 21.0752 43.4132 22.3513 41.5434C23.3842 40.0055 24.9337 39.9753 25.9059 41.4831C27.7592 44.2877 29.6125 47.0923 31.4962 49.927C30.4632 50.681 29.8556 50.2588 29.491 49.4144C28.8833 47.997 27.8504 47.605 26.3617 47.7558C25.1464 47.8764 23.9311 47.8462 22.7158 47.7558C20.9233 47.605 19.3131 47.7256 18.5232 49.7159C18.3712 50.0778 17.6117 50.1985 17.156 50.4397C17.0344 50.2588 16.9433 50.0778 16.8218 49.927ZM20.7106 46.459C23.1108 46.459 25.2375 46.459 27.5769 46.459C26.6047 44.921 25.7236 43.5338 24.8122 42.1767C24.3565 41.453 23.8703 41.5434 23.4146 42.2069C22.5639 43.5338 21.7132 44.8607 20.7106 46.459Z" fill="black"/>
<path d="M102.438 50.0175C101.314 50.6508 100.797 50.0477 100.432 49.2937C99.8552 48.0272 98.9133 47.6351 97.5462 47.7256C95.8448 47.8462 94.113 47.8462 92.4116 47.7256C91.2268 47.6351 90.528 48.0272 90.0115 49.0525C89.6469 49.7763 89.2216 50.6508 87.8848 50.0477C88.0671 49.6556 88.1886 49.2636 88.4316 48.9319C90.1026 46.4289 91.7432 43.8957 93.4446 41.3927C94.3865 39.9753 95.9663 39.9753 96.9385 41.4228C98.5791 43.8957 100.22 46.3384 101.86 48.8112C102.043 49.2033 102.195 49.5953 102.438 50.0175ZM91.6825 46.459C94.0826 46.459 96.2094 46.459 98.5791 46.459C97.5462 44.8909 96.6955 43.4433 95.7233 42.0561C95.1764 41.272 94.7207 41.7244 94.3561 42.2974C93.5358 43.6243 92.6851 44.921 91.6825 46.459Z" fill="black"/>
<path d="M117.962 43.1719C115.775 41.7243 113.344 41.2117 110.762 41.6339C110.063 41.7545 109.395 41.9656 108.757 42.237C107.45 42.8401 106.752 43.8956 106.752 45.3431C106.752 46.851 107.511 47.9366 108.909 48.5096C111.461 49.5651 114.043 49.4445 116.534 48.2684C117.021 48.0271 117.507 47.7557 117.993 47.5144C118.874 48.1477 118.783 48.6604 117.902 49.0826C114.651 50.7412 111.309 50.9523 107.967 49.4445C106.235 48.6604 105.263 47.2129 105.293 45.2527C105.324 43.3528 106.265 41.9656 107.936 41.2117C111.278 39.7038 114.62 39.9149 117.871 41.5434C118.752 42.0259 118.813 42.5386 117.962 43.1719Z" fill="black"/>
<path d="M12.9023 43.202C10.7148 41.7243 8.34506 41.272 5.79299 41.6338C5.30688 41.6942 4.79039 41.8148 4.33467 41.9656C2.57253 42.5687 1.66107 43.775 1.69145 45.4034C1.69145 47.0319 2.60291 48.2683 4.39543 48.8112C6.97788 49.5952 9.46919 49.3841 11.8997 48.1176C12.2947 47.9065 12.9023 48.0271 13.4188 48.0271C13.1454 48.4493 12.9327 49.0524 12.5377 49.2635C9.62109 50.7412 6.58292 50.8618 3.54474 49.8063C1.38764 49.0524 0.23313 47.424 0.202748 45.4336C0.172367 43.4131 1.29649 41.7846 3.4536 41.0006C6.58292 39.8546 9.71224 40.0657 12.72 41.5434C13.4796 41.9053 13.9049 42.3576 12.9023 43.202Z" fill="black"/>
<path d="M59.9637 49.0826C63.3665 49.0826 66.5262 49.0826 69.6859 49.0826C69.7467 49.2032 69.8074 49.3238 69.8378 49.4445C69.4429 49.7159 69.0783 50.2587 68.6833 50.2587C65.3717 50.319 62.0297 50.2888 58.627 50.2888C58.627 46.9716 58.627 43.8051 58.627 40.6085C59.6903 40.2165 59.9941 40.6387 59.9637 41.6338C59.9334 44.0162 59.9637 46.4288 59.9637 49.0826Z" fill="black"/>
<path d="M73.6053 50.2889C73.6053 47.1526 73.5749 44.2575 73.6356 41.3625C73.6356 41.0006 74.1825 40.6689 74.4559 40.307C74.6078 40.3975 74.7901 40.4578 74.942 40.5483C74.942 43.3227 74.942 46.0971 74.942 49.0525C78.3448 49.0525 81.5653 49.0525 84.7857 49.0525C84.8465 49.2033 84.9073 49.3239 84.968 49.4747C84.5427 49.7461 84.1173 50.2588 83.6616 50.2889C80.3804 50.3191 77.1295 50.2889 73.6053 50.2889Z" fill="black"/>
<path d="M51.9731 40.5482C52.3985 40.5482 52.7631 40.5482 53.3403 40.5482C53.3403 43.5639 53.3707 46.5494 53.2796 49.535C53.2796 49.8667 52.6415 50.1381 52.277 50.4698C52.1858 50.3793 52.0643 50.2587 51.9731 50.1682C51.9731 46.9716 51.9731 43.8052 51.9731 40.5482Z" fill="black"/>
<path d="M89.6465 9.51685C89.3731 11.1152 89.13 12.5325 88.887 13.9801C83.2056 13.9801 77.6154 13.9801 71.9644 13.9801C71.9644 12.4722 71.9644 11.0247 71.9644 9.51685C77.828 9.51685 83.6006 9.51685 89.6465 9.51685Z" fill="black"/>
<path d="M48.0234 20.1924C51.6692 20.1924 55.2239 20.1924 58.9001 20.1924C58.9001 22.7256 58.9001 25.1984 58.9001 27.8522C55.2543 27.1888 51.6996 26.5555 48.0234 25.892C48.0234 24.0223 48.0234 22.2129 48.0234 20.1924Z" fill="black"/>
<path d="M30.1592 14.8848C35.9013 14.8848 41.4308 14.8848 47.0514 14.8848C47.0514 16.3624 47.0514 17.7497 47.0514 19.2575C41.7346 19.2575 36.4178 19.2575 30.9187 19.2575C30.7061 17.8703 30.463 16.4831 30.1592 14.8848Z" fill="black"/>
<path d="M58.9309 8.00903C58.9309 8.79311 58.9309 9.4264 58.9309 10.1502C49.0568 10.1502 39.2739 10.1502 29.3998 10.1502C29.2783 9.45656 29.1568 8.79311 29.0049 8.00903C39.0309 8.00903 48.9353 8.00903 58.9309 8.00903Z" fill="black"/>
<path d="M59.9331 20.7654C59.9331 20.0718 59.9331 19.4988 59.9331 18.775C69.2603 18.775 78.5875 18.775 88.0362 18.775C87.9147 19.4385 87.7932 20.0416 87.6717 20.7654C78.466 20.7654 69.2907 20.7654 59.9331 20.7654Z" fill="black"/>
<path d="M59.9331 8.61212C59.9331 7.13444 59.9331 5.74723 59.9331 4.20923C63.5789 4.20923 67.2247 4.20923 70.9617 4.20923C70.9617 5.65676 70.9617 7.07413 70.9617 8.61212C67.3463 8.61212 63.7308 8.61212 59.9331 8.61212Z" fill="black"/>
<path d="M59.9331 27.8522C59.9331 25.7412 59.9331 23.8112 59.9331 21.7303C68.9869 21.7303 78.0406 21.7303 87.0944 21.7303C87.1552 21.851 87.1855 21.9414 87.2463 22.0621C86.4868 22.3636 85.788 22.7858 84.9981 22.9366C79.0129 24.173 73.0276 25.4095 67.0424 26.5856C64.7334 27.0379 62.394 27.3998 59.9331 27.8522ZM60.7534 27.0078C66.7082 25.8015 72.5112 24.6254 78.3445 23.389C78.8913 23.2683 79.4078 22.9065 80.2585 22.4843C73.453 22.4843 67.1032 22.4843 60.7534 22.4843C60.7534 23.9921 60.7534 25.3793 60.7534 27.0078Z" fill="black"/>
<path d="M26.8174 4.17908C37.451 4.17908 48.115 4.17908 58.779 4.17908C58.779 5.17425 58.779 6.16943 58.779 7.1646C58.6271 7.1646 58.4752 7.1646 58.3536 7.19476C58.2929 6.50115 58.2321 5.80755 58.141 4.99331C50.3329 4.99331 42.5248 4.99331 34.5647 4.99331C34.8989 5.71707 35.2331 6.35037 35.6281 7.22492C33.3798 7.22492 31.2835 7.52648 29.3087 7.10429C28.2453 6.86303 27.4554 5.41551 26.5439 4.5108C26.6655 4.39017 26.7262 4.26955 26.8174 4.17908Z" fill="black"/>
<path d="M36.7219 11.8089C36.7826 12.5628 36.813 13.1961 36.8738 13.95C34.5951 13.95 32.4076 13.95 30.0682 13.95C29.9163 13.0151 29.734 12.0501 29.5518 10.9946C39.3954 10.9946 49.0872 10.9946 58.8094 10.9946C58.8094 11.9898 58.8094 13.0151 58.8094 14.0103C58.6575 14.0103 58.5056 14.0405 58.3233 14.0405C58.2625 13.3469 58.2018 12.6533 58.141 11.839C51.062 11.8089 43.9831 11.8089 36.7219 11.8089Z" fill="black"/>
<path d="M88.7051 14.8848C88.5532 15.8799 88.4012 16.7847 88.2493 17.7798C86.0922 17.7798 83.9351 17.7798 81.7173 17.7798C81.7173 17.1465 81.7173 16.5434 81.7173 15.7593C74.7902 15.7593 67.8632 15.7593 60.8146 15.7593C60.7538 16.3926 60.6627 17.1164 60.5716 17.81C60.3893 17.81 60.207 17.8401 60.0247 17.8401C59.9639 16.8751 59.8728 15.9403 59.812 14.8546C69.5038 14.8848 79.0133 14.8848 88.7051 14.8848Z" fill="black"/>
<path d="M91.1961 6.07906C90.5581 6.4711 89.9201 7.16471 89.2821 7.16471C83.7222 7.25518 78.1623 7.22502 72.5721 7.19486C72.3898 7.19486 72.1771 7.13455 71.9341 7.07424C71.9341 6.59173 71.9341 6.16953 71.9341 5.62671C78.2839 5.62671 84.6033 5.62671 90.8923 5.62671C91.0138 5.77749 91.105 5.92828 91.1961 6.07906Z" fill="black"/>
<path d="M47.0514 23.3287C41.8865 22.7858 36.6304 24.173 31.6782 22.2129C31.6782 22.0621 31.7086 21.8811 31.7086 21.7303C36.7824 21.7303 41.8865 21.7303 47.0514 21.7303C47.0514 22.1827 47.0514 22.6652 47.0514 23.3287Z" fill="black"/>
<path d="M59.9331 12.4723C59.9331 11.9596 59.9331 11.5374 59.9331 11.0248C63.6093 11.0248 67.2551 11.0248 70.9921 11.0248C70.9921 11.5073 70.9921 11.9295 70.9921 12.4723C67.3159 12.4723 63.6701 12.4723 59.9331 12.4723Z" fill="black"/>
<path d="M58.961 16.3624C58.961 16.9052 58.961 17.2671 58.961 17.7798C55.2848 17.7798 51.6997 17.7798 47.9932 17.7798C47.9932 17.3274 47.9932 16.9052 47.9932 16.3624C51.6086 16.3624 55.224 16.3624 58.961 16.3624Z" fill="black"/>
</g>
<defs>
<clipPath id="clip0_69_1723">
<rect width="118.367" height="50" fill="white" transform="translate(0.202637 0.5)"/>
</clipPath>
</defs>
</svg>
