<svg width="164" height="45" viewBox="0 0 164 45" fill="none" xmlns="http://www.w3.org/2000/svg">
<g clip-path="url(#clip0_69_1748)">
<path d="M108.605 35.2878C109.213 35.4624 109.747 35.5902 110.264 35.7649C110.754 35.931 111.236 36.127 111.705 36.3442C112.408 36.668 112.994 37.1408 113.502 37.7244C113.81 38.0779 114.153 38.4102 114.514 38.7126C115.126 39.2281 115.851 39.5475 116.632 39.7477C116.784 39.7861 116.945 39.8202 117.092 39.8755C117.492 40.0289 117.592 40.3952 117.331 40.7318C117.153 40.9575 116.906 41.0683 116.628 41.1194C115.903 41.2514 115.178 41.2344 114.492 40.966C113.889 40.7275 113.302 40.4506 112.734 40.1396C111.206 39.3005 109.682 38.457 108.18 37.5795C106.157 36.3953 103.982 35.7138 101.637 35.5008C98.5158 35.2154 96.0629 33.75 94.1745 31.339C93.0197 29.8609 92.3467 28.157 91.9256 26.3594C91.383 24.0591 91.2571 21.7247 91.422 19.3776C91.5523 17.597 91.9517 15.8719 92.7505 14.2531C94.0659 11.5823 96.1845 9.80597 99.0194 8.82622C100.673 8.25542 102.384 8.01261 104.129 7.98279C106.335 7.94872 108.523 8.11059 110.65 8.74529C112.234 9.21812 113.671 9.95506 114.87 11.0967C116.216 12.3789 117.027 13.955 117.535 15.7057C117.987 17.2733 118.16 18.8792 118.208 20.4979C118.265 22.3595 118.16 24.2124 117.757 26.0441C117.04 29.2602 115.187 31.667 112.365 33.4007C111.318 34.0439 110.224 34.5849 109.096 35.0663C108.952 35.1302 108.814 35.1941 108.605 35.2878ZM113.954 21.8994C113.902 21.0347 113.88 20.1699 113.797 19.3095C113.658 17.8356 113.346 16.3958 112.76 15.0199C112.078 13.4097 111.084 12.0296 109.539 11.1137C107.181 9.72077 104.65 9.54186 102.05 10.266C99.6272 10.9391 98.0122 12.5663 96.9442 14.7515C96.0543 16.5704 95.6896 18.5214 95.5811 20.5192C95.4986 21.9931 95.529 23.4712 95.746 24.9366C95.9761 26.5042 96.3799 28.0207 97.1396 29.4306C98.3248 31.6329 100.105 33.1111 102.61 33.6648C104.303 34.0397 106 33.9886 107.676 33.5413C109.308 33.1068 110.637 32.2208 111.644 30.879C112.434 29.8225 112.938 28.6383 113.281 27.3817C113.767 25.5883 113.919 23.7524 113.954 21.8994Z" fill="black"/>
<path d="M54.9937 8.54083C55.189 8.53231 55.3149 8.52379 55.4452 8.52379C56.8344 8.52379 58.2236 8.53231 59.6129 8.51527C59.9081 8.51101 60.0904 8.60898 60.2597 8.83901C61.9789 11.1563 63.7111 13.4694 65.4346 15.7824C68.3216 19.6545 71.213 23.5224 74.1 27.3945C74.1564 27.4712 74.2259 27.5351 74.3431 27.6586C74.3604 27.501 74.3735 27.4073 74.3778 27.3178C74.5471 24.2124 74.7164 21.1114 74.8857 18.006C74.9769 16.3617 75.0811 14.7175 75.1462 13.0732C75.1723 12.4385 75.1202 11.7953 75.0637 11.1606C75.0073 10.4918 74.686 9.91673 74.278 9.38852C74.0783 9.12867 73.8786 8.87309 73.6745 8.60472C74.0262 8.50675 76.8307 8.49823 77.2822 8.59195C77.3864 17.7589 77.4906 26.9387 77.5947 36.1738C77.3126 36.1738 77.0738 36.1738 76.835 36.1738C76.4009 36.1738 75.9667 36.161 75.5326 36.1781C75.2765 36.1866 75.1115 36.1142 74.9552 35.9012C73.8699 34.4316 72.7715 32.9662 71.6731 31.5009C68.8947 27.7821 66.1162 24.0591 63.3334 20.3403C61.9832 18.5299 60.6331 16.7238 59.2786 14.9134C59.1874 14.7899 59.0875 14.6749 58.9052 14.5641C58.8922 14.7814 58.8705 14.9943 58.8618 15.2116C58.8184 16.8005 58.7837 18.3894 58.7359 19.9783C58.6361 23.3988 58.5275 26.8194 58.432 30.2357C58.4103 31.0579 58.4146 31.8843 58.406 32.7064C58.3973 33.5882 58.6578 34.3847 59.1961 35.0918C59.4435 35.4199 59.691 35.7521 59.9428 36.0886C59.6432 36.1909 56.8995 36.2249 55.9184 36.1397C55.914 35.9566 55.901 35.7649 55.9053 35.5732C55.9574 33.6989 56.0443 31.8289 56.0616 29.9546C56.1007 25.8525 56.1224 21.7503 56.1137 17.6482C56.1094 16.0039 56.0616 14.3511 55.7968 12.7239C55.5928 11.4801 55.3193 10.2447 55.0805 9.00514C55.0544 8.86883 55.0284 8.73252 54.9937 8.54083Z" fill="black"/>
<path d="M121.473 8.54077C123.309 8.54077 125.141 8.54077 126.987 8.54077C126.987 8.76228 127 8.95823 126.987 9.15418C126.848 11.0924 126.683 13.0305 126.574 14.973C126.396 18.1209 126.292 21.2689 126.335 24.4211C126.357 25.9972 126.353 27.5733 126.583 29.1367C126.687 29.8651 126.83 30.5935 127.043 31.2964C127.599 33.1281 128.866 34.2185 130.777 34.5593C132.474 34.8618 134.18 34.8447 135.869 34.538C137.258 34.2867 138.244 33.4901 138.83 32.2207C139.294 31.2154 139.529 30.1505 139.681 29.0642C139.967 27.0622 140.006 25.0516 140.041 23.0324C140.093 20.0932 140.184 17.1582 140.254 14.219C140.271 13.4949 140.297 12.7707 140.249 12.0508C140.193 11.1307 139.854 10.283 139.446 9.46088C139.303 9.17121 139.168 8.87729 139.008 8.54503C140.301 8.54503 141.539 8.54503 142.819 8.54503C142.833 8.66004 142.854 8.78358 142.854 8.90711C142.854 14.4703 142.863 20.0378 142.85 25.6011C142.846 26.9897 142.828 28.3827 142.637 29.7671C142.494 30.8107 142.281 31.8373 141.851 32.8086C141.248 34.1674 140.258 35.1557 138.882 35.7734C137.844 36.2377 136.746 36.4762 135.622 36.6083C133.789 36.8213 131.957 36.8511 130.121 36.6849C128.949 36.5784 127.803 36.3612 126.704 35.9352C124.833 35.2068 123.557 33.9161 122.854 32.0716C122.459 31.028 122.25 29.9418 122.142 28.8385C121.972 27.109 122.042 25.3796 122.094 23.6458C122.172 21.2178 122.211 18.7897 122.033 16.3659C121.864 14.0444 121.655 11.7271 121.473 9.4055C121.451 9.1201 121.473 8.83895 121.473 8.54077Z" fill="black"/>
<path d="M163.289 8.57913C163.428 9.69519 163.567 10.7899 163.714 11.9656C163.545 11.8378 163.432 11.7569 163.324 11.6717C163.007 11.4246 162.69 11.1733 162.373 10.9305C162.078 10.7047 161.743 10.594 161.361 10.6153C160.176 10.6877 158.995 10.7473 157.81 10.8283C156.108 10.9476 154.406 11.0839 152.705 11.2159C152.405 11.2372 152.101 11.267 151.78 11.2926C151.78 14.3213 151.78 17.3244 151.78 20.3914C155.431 20.4085 159.082 20.3872 162.716 20.4042C162.716 21.1624 162.716 21.8781 162.716 22.6363C159.108 22.6363 155.47 22.6363 151.767 22.6363C151.619 26.0569 151.511 29.4349 151.385 32.8597C151.732 32.9321 152.053 33.0003 152.375 33.0642C154.463 33.4689 156.56 33.7926 158.687 33.882C159.29 33.9076 159.907 33.9119 160.506 33.8394C161.657 33.7031 162.594 33.1281 163.389 32.3187C163.506 32.1994 163.623 32.0759 163.788 31.9055C163.81 32.0589 163.832 32.1483 163.832 32.2335C163.832 32.9449 163.792 33.652 163.58 34.3378C163.311 35.2026 162.725 35.7265 161.822 35.8288C161.123 35.9054 160.406 35.9267 159.703 35.8926C158.765 35.8458 157.832 35.7265 156.894 35.6371C155.349 35.4922 153.803 35.4496 152.257 35.5391C150.482 35.6413 148.711 35.7819 146.935 35.9054C146.835 35.9139 146.74 35.9054 146.575 35.9054C146.601 35.5093 146.622 35.1302 146.653 34.7553C146.787 33.1025 146.935 31.4455 147.061 29.7927C147.156 28.5488 147.291 27.3007 147.313 26.0569C147.356 23.5309 147.356 21.0048 147.334 18.4788C147.313 15.8079 147.039 13.1541 146.731 10.5045C146.657 9.8741 146.596 9.23939 146.531 8.60895C146.874 8.51524 162.729 8.48968 163.289 8.57913Z" fill="black"/>
<path d="M23.3319 30.5339C23.5664 30.7596 23.5447 31.0152 23.4839 31.2367C23.2104 32.2889 22.798 33.2857 22.086 34.1334C21.6736 34.6232 21.1179 34.8831 20.5188 35.0833C19.5376 35.407 18.5261 35.5561 17.5015 35.6498C15.5349 35.8245 13.5726 35.8032 11.619 35.4965C9.33108 35.1344 7.19513 34.3889 5.34571 32.9747C3.28357 31.3986 2.01155 29.3071 1.29523 26.8747C0.613635 24.566 0.479052 22.2061 0.617976 19.8249C0.717827 18.0911 1.01304 16.3872 1.63385 14.7472C3.04045 11.0668 5.72341 8.85601 9.63497 8.05943C11.1892 7.74421 12.7607 7.70161 14.341 7.75273C17.0196 7.83367 19.6722 8.17019 22.3248 8.49819C22.3942 8.50671 22.4593 8.53652 22.5201 8.5493C22.6547 9.56312 22.7936 10.5599 22.9152 11.5609C22.9282 11.676 22.9065 11.8719 22.8457 11.8975C22.7328 11.9443 22.5722 11.9102 22.4463 11.8676C22.3291 11.8293 22.2249 11.7399 22.1207 11.6589C20.7836 10.6536 19.2511 10.1425 17.6014 9.95076C16.1166 9.77611 14.6319 9.75055 13.1471 10.0061C10.0257 10.5429 7.82463 12.2255 6.56563 15.0838C5.98823 16.4 5.68434 17.7844 5.54107 19.2029C5.35005 21.09 5.38913 22.9728 5.7017 24.8471C6.02731 26.8023 6.65246 28.6511 7.86804 30.2612C9.33108 32.2037 11.3064 33.2899 13.7289 33.6222C16.5725 34.0098 19.1469 33.2942 21.5129 31.7649C21.9601 31.4753 22.3812 31.1515 22.8197 30.8491C22.9846 30.7426 23.1583 30.6404 23.3319 30.5339Z" fill="black"/>
<path d="M163.94 0C163.94 0.328001 163.94 0.621923 163.94 0.937145C109.716 0.937145 55.5188 0.937145 1.28662 0.937145C1.28662 0.626183 1.28662 0.323741 1.28662 0C55.5015 0 109.699 0 163.94 0Z" fill="black"/>
<path d="M26.189 8.54077C28.0905 8.54077 29.9399 8.54077 31.8327 8.54077C31.7719 10.6238 31.6981 12.6855 31.6547 14.7515C31.6113 16.8217 31.5853 18.8962 31.5679 20.9665C31.5505 23.0239 31.5505 25.0814 31.5462 27.1431C31.5419 29.2133 31.5462 31.2836 31.5462 33.3964C31.7459 33.4049 31.9152 33.4262 32.0845 33.422C33.5649 33.4049 35.0236 33.6137 36.4823 33.8309C37.3983 33.9672 38.3144 34.0993 39.2434 33.9885C40.0943 33.8863 40.8193 33.5327 41.4228 32.9449C41.6789 32.6936 41.909 32.4209 42.1521 32.1568C42.278 32.0205 42.3952 31.8416 42.6167 31.9311C42.8337 32.0205 42.8164 32.2378 42.8033 32.4124C42.7816 32.6936 42.7469 32.979 42.6774 33.2516C42.4994 33.9289 42.1912 34.5508 41.8396 35.16C41.6702 35.4539 41.4054 35.6115 41.1059 35.7222C40.5068 35.948 39.8816 36.0843 39.2434 36.0801C38.1581 36.0715 37.0727 36.0502 35.9917 35.9736C34.5461 35.8756 33.1047 35.8117 31.6547 35.8841C30.1092 35.9608 28.5637 36.0588 27.0182 36.144C26.9227 36.1482 26.8228 36.144 26.6622 36.144C27.2092 26.9344 27.3047 17.7546 26.189 8.54077Z" fill="black"/>
<path d="M1.27783 44.9489C1.27783 44.6337 1.27783 44.344 1.27783 44.0331C55.5014 44.0331 109.703 44.0331 163.935 44.0331C163.935 44.3355 163.935 44.6252 163.935 44.9106C163.597 44.9958 2.27634 45.0384 1.27783 44.9489Z" fill="black"/>
<path d="M88.1614 36.1525C86.5291 36.1525 84.9575 36.1525 83.3338 36.1525C83.8592 26.9471 83.8852 17.7631 83.0039 8.60041C83.3512 8.50669 87.6535 8.48113 88.2439 8.57059C88.2439 8.69838 88.2483 8.83043 88.2439 8.96674C88.1658 11.3224 88.0746 13.678 88.0182 16.0337C87.9531 18.5895 87.8619 21.1454 87.8879 23.697C87.9313 27.5861 88.0703 31.4753 88.1658 35.3644C88.1701 35.6157 88.1614 35.8671 88.1614 36.1525Z" fill="black"/>
<path d="M50.2267 36.1525C48.59 36.1525 47.0184 36.1525 45.3904 36.1525C45.3904 35.9863 45.3861 35.833 45.3904 35.6839C45.4859 33.5583 45.6248 31.4327 45.6769 29.3028C45.7377 26.8321 45.7594 24.3615 45.7334 21.8951C45.7117 19.6545 45.6465 17.4096 45.5337 15.1689C45.4295 13.0561 45.2428 10.9475 45.0952 8.83896C45.0908 8.75802 45.0952 8.67283 45.0952 8.59189C45.4034 8.50244 49.7057 8.48114 50.2701 8.56633C50.2788 8.66431 50.3048 8.77506 50.3005 8.88155C50.2137 11.5354 50.1312 14.1892 50.027 16.8388C49.9098 19.9186 49.8924 22.9984 49.9488 26.0782C49.9879 28.2506 50.0313 30.4231 50.0878 32.5913C50.1138 33.6137 50.1789 34.6317 50.2223 35.6541C50.231 35.8117 50.2267 35.965 50.2267 36.1525Z" fill="black"/>
</g>
<defs>
<clipPath id="clip0_69_1748">
<rect width="163.37" height="45" fill="white" transform="translate(0.570312)"/>
</clipPath>
</defs>
</svg>
