<svg width="97" height="96" viewBox="0 0 97 96" fill="none" xmlns="http://www.w3.org/2000/svg">
<path d="M31.9538 67.064C35.4459 57.3828 39.0598 47.2913 42.7143 37.2409C44.0137 33.713 44.907 33.2207 48.4397 34.0411C50.3076 30.5953 51.4851 30.062 54.6524 31.4567C57.3323 29.3646 58.8753 29.0775 60.6214 30.2671C62.2456 31.4157 62.5705 33.0156 61.7583 35.9282C62.002 36.0512 62.2862 36.2153 62.5705 36.3384C65.088 37.2409 65.8595 38.7177 65.1286 41.4662C64.0729 45.6094 62.9359 49.7937 61.8396 53.9369C61.799 54.06 61.8802 54.183 61.9208 54.6343C63.0171 54.142 63.9917 53.6908 65.0068 53.2395C67.1183 52.337 69.0674 52.9114 70.1231 54.7163C71.0976 56.3572 70.7728 58.4493 69.1486 59.8851C66.225 62.4285 63.342 64.9719 60.2965 67.3512C58.3881 68.828 57.0075 70.9611 56.6014 73.3814C56.439 74.366 56.0736 75.3505 55.7893 76.4171C56.1548 76.6222 56.5202 76.7042 56.7232 76.9504C56.8451 77.0734 56.9263 77.2375 57.0481 77.3606C57.5354 78.058 56.9669 79.0425 56.1548 78.9194C56.1142 78.9194 56.0736 78.9194 56.0329 78.8784C47.5058 75.8017 39.0192 72.684 30.5326 69.4843C30.3702 69.4023 30.2078 69.2792 30.0859 69.1151C29.7205 68.5818 29.9235 67.8845 30.492 67.5973L31.9538 67.064ZM53.7996 75.8838C54.2057 74.407 54.6118 73.2584 54.8148 72.0687C55.2208 69.5664 56.439 67.7614 58.4693 66.2025C61.5959 63.8233 64.5195 61.1568 67.5243 58.6134C68.4177 57.834 69.108 56.9725 68.2959 55.8239C67.5243 54.6753 66.4686 54.9214 65.4129 55.4547C64.0729 56.1111 62.7329 56.8085 61.3523 57.3417C60.9868 57.4648 60.6214 57.5058 60.2153 57.5058C59.6875 57.5058 59.2408 57.1366 59.2002 56.6033C59.1596 56.2752 59.1596 55.947 59.2408 55.6188C60.459 50.7782 61.7583 45.9786 63.0577 41.179C63.342 40.1124 63.5856 39.0459 62.3268 38.5946C60.865 38.0613 60.4996 39.292 60.0935 40.3175C59.2814 42.5738 58.5099 44.83 57.6572 47.0452C57.2917 47.9477 57.4135 49.5475 55.7893 49.0553C55.5051 48.9732 55.4645 47.1272 55.7487 46.2658C57.0481 42.3687 58.4693 38.5536 59.8905 34.6975C60.2965 33.5489 60.2965 32.4413 59.0378 31.908C57.6572 31.3337 56.8857 32.2362 56.439 33.4258C56.0736 34.3693 55.7487 35.3539 55.4239 36.3384C54.2463 39.6202 53.1093 42.9019 51.81 46.1427C51.7694 46.2658 51.6881 46.3888 51.5663 46.4709C51.0385 46.9631 50.1451 46.676 49.9827 45.9376C49.9421 45.7735 49.9421 45.6094 49.9421 45.4863C49.9421 44.912 50.3076 44.3377 50.5106 43.7634C51.5257 40.9329 52.6221 38.1434 53.4748 35.2718C53.556 34.9847 53.4748 34.6155 53.3124 34.2052C53.0687 33.5899 52.2972 33.3027 51.6881 33.6309C51.3633 33.795 51.0791 34.0001 50.8354 34.2463C50.4294 34.6155 50.3888 35.3539 50.1451 35.9282C48.9676 39.1279 47.8712 42.3686 46.6124 45.5274C46.2064 46.5119 44.704 46.1427 44.704 45.0761C44.704 44.953 44.704 44.871 44.7446 44.7479C44.907 43.8044 45.3537 42.943 45.6785 42.0405C46.2064 40.5637 46.8155 39.1279 47.2215 37.6101C47.2621 37.528 47.2621 37.446 47.2215 37.3639C47.1403 36.4615 46.0846 36.0512 45.3537 36.5845C45.2725 36.6666 45.1912 36.7076 45.11 36.7896C44.7852 37.1588 44.6634 37.7742 44.5009 38.3075C41.0901 47.7426 37.7198 57.1777 34.3089 66.6128C34.1059 67.2281 33.9435 67.8434 33.6998 68.5818C40.5216 71.0021 47.0185 73.3814 53.7996 75.8838Z" fill="#940106"/>
<path d="M37.3133 34.2053C36.4199 34.1642 35.7702 34.1232 35.1206 34.1232C32.9685 34.1232 30.7758 34.2053 28.6237 34.0822C28.5018 34.0822 28.38 34.0412 28.2582 34.0001C27.4055 33.713 27.3649 32.4413 28.2176 32.1541C28.3394 32.1131 28.4206 32.1131 28.5424 32.0721C31.1006 31.949 33.6994 31.949 36.2575 32.0721C37.7599 32.1541 38.4096 31.6209 38.8563 30.1851C39.5872 27.7648 40.5211 25.4265 41.4144 23.0472C42.9168 18.945 46.8556 17.017 50.9162 18.4938C58.3876 21.1602 65.8184 23.8677 73.2086 26.6982C77.0256 28.134 78.8934 32.1541 77.5534 36.0923C75.9292 40.9329 74.1426 45.7325 72.3559 50.5321C72.3153 50.6141 72.2747 50.6962 72.1935 50.8192C71.625 51.5576 70.4475 51.0654 70.4475 50.1219C70.4475 49.9988 70.4881 49.8347 70.5287 49.7116C72.0717 45.1992 73.7365 40.6868 75.3201 36.2153C76.4165 33.0566 74.8329 29.6108 71.7468 28.4211C64.7221 25.7957 57.6567 23.2113 50.5913 20.6269C47.2616 19.3962 44.5005 20.6269 43.2823 24.0318C40.6023 31.3337 37.9223 38.6357 35.4048 45.9786C34.9987 47.1683 34.6739 48.6861 34.7145 49.9578C34.7551 51.3936 34.6739 51.9268 33.3339 51.9268C30.4915 51.9268 28.38 52.0089 25.5376 51.8858C25.3752 51.8858 25.2128 51.8038 25.0504 51.7217C24.4007 51.3115 24.4007 50.368 25.091 49.9988C25.2534 49.9168 25.4158 49.8347 25.6188 49.8347C27.974 49.7116 30.3291 49.7937 32.603 49.7937C33.0091 47.5375 33.4151 45.4043 33.8618 43.025C31.263 43.025 28.6643 43.025 26.0655 43.025C24.0352 43.025 22.0049 43.1071 19.9746 42.984C19.8528 42.984 19.731 42.943 19.6092 42.902C18.6347 42.5328 18.8783 40.9739 19.8934 40.9739C24.2382 40.8919 28.5424 40.8509 32.8872 40.9739C34.4303 41.0149 35.2424 40.5227 35.6484 39.0049C36.0545 37.446 36.7042 35.9282 37.3133 34.2053Z" fill="#940106"/>
<circle cx="47.5" cy="47.5" r="45.75" stroke="#940106" stroke-width="3.5"/>
</svg>
