<svg width="75" height="75" viewBox="0 0 75 75" fill="none" xmlns="http://www.w3.org/2000/svg">
<g clip-path="url(#clip0_69_772)">
<path d="M18.7568 37.513C21.4438 37.513 24.1568 37.513 26.8438 37.513C32.9742 37.5391 37.4872 42.0522 37.4872 48.1826C37.5133 53.5565 37.5133 58.9043 37.4872 64.2782C37.4611 70.4608 32.9481 74.9739 26.7655 74.9739C21.4438 75 16.0959 75 10.7742 74.9739C4.51332 74.9478 0.0263672 70.4609 0.0263672 64.2C0.0263672 58.9043 0.0263672 53.6087 0.0263672 48.2869C0.0263672 41.9739 4.51332 37.513 10.8525 37.4869C13.4872 37.4869 16.122 37.513 18.7568 37.513ZM18.809 41.6609C16.1481 41.6609 13.4612 41.6609 10.8003 41.6609C6.80898 41.6869 4.17419 44.3217 4.17419 48.3391C4.14811 53.6087 4.14811 58.8782 4.17419 64.1478C4.17419 68.1652 6.80898 70.8261 10.8525 70.8261C16.122 70.8522 21.3916 70.8522 26.6611 70.8261C30.7307 70.8261 33.3655 68.1913 33.3655 64.0956C33.3655 58.8522 33.3655 53.6087 33.3655 48.3913C33.3655 44.2956 30.7307 41.6869 26.6351 41.6609C24.0264 41.6348 21.4177 41.6609 18.809 41.6609Z" fill="#940106"/>
<path d="M20.8439 19.6174C20.8439 20.4522 20.8439 20.9739 20.8439 21.5217C20.8439 24.6522 20.87 27.7565 20.8439 30.887C20.8439 32.6609 19.5656 33.7044 18.0787 33.2087C17.1395 32.8957 16.6439 32.113 16.6439 30.8087C16.6439 27.5217 16.6439 24.2348 16.6439 20.9478C16.6439 20.6087 16.6439 20.2435 16.6439 19.9044C16.5656 19.8522 16.4874 19.8261 16.4091 19.7739C15.2874 20.9217 14.1656 22.0696 13.0439 23.2174C12.7048 23.5565 12.3656 23.9217 12.0004 24.2609C11.0091 25.2 9.83519 25.2522 8.97432 24.3913C8.11345 23.5565 8.13954 22.3044 9.05258 21.3391C10.0439 20.2957 11.0613 19.3044 12.0787 18.313C13.7221 16.6696 15.3395 15.0522 16.983 13.4087C18.2352 12.1826 19.2787 12.1826 20.5308 13.4087C23.1395 15.9913 25.7221 18.6 28.3308 21.2087C29.3743 22.2522 29.4526 23.5304 28.5656 24.3913C27.6787 25.2783 26.4526 25.2 25.383 24.1304C23.9221 22.6957 22.4874 21.2609 20.8439 19.6174Z" fill="#940106"/>
<path d="M55.3822 58.3566C54.7561 58.3566 54.417 58.3566 54.0778 58.3566C50.7387 58.3566 47.3735 58.3827 44.0343 58.3566C42.6257 58.3566 41.6865 57.4696 41.6865 56.2696C41.6865 55.1218 42.5474 54.2609 43.8257 54.1827C44.0865 54.1566 44.3474 54.1827 44.6083 54.1827C47.7909 54.1827 50.9735 54.1827 54.1561 54.1827C54.4691 54.1827 54.7822 54.1827 55.3039 54.1827C54.9909 53.8174 54.8083 53.6087 54.6257 53.4C53.4517 52.2261 52.2778 51.0522 51.1039 49.8783C49.8517 48.6261 49.6952 47.4522 50.6343 46.487C51.5735 45.5218 52.8257 45.7044 54.1039 46.9566C55.8257 48.6783 57.5474 50.4001 59.2691 52.1218C60.0517 52.9044 60.8343 53.687 61.617 54.4696C62.843 55.7218 62.843 56.7653 61.617 58.0174C59.0343 60.6261 56.4257 63.2087 53.817 65.8174C52.7735 66.8609 51.4952 66.9392 50.6343 66.0522C49.7474 65.1392 49.8257 63.9392 50.8952 62.8696C52.3039 61.4087 53.7387 59.974 55.3822 58.3566Z" fill="#940106"/>
<path d="M0.0258944 9.99134C0.182416 4.64352 4.74763 0.104387 10.0955 0.0261257C11.4781 3.87542e-05 12.4433 0.808735 12.4955 2.03482C12.5476 3.20873 11.6868 4.04352 10.3302 4.17395C6.67807 4.51308 4.51285 6.65221 4.17372 10.2522C4.04329 11.7131 3.2085 12.5479 2.0085 12.4957C0.756329 12.4435 -0.0262795 11.4522 0.0258944 9.99134Z" fill="#940106"/>
<path d="M74.9743 64.9565C74.87 70.3304 70.2265 74.9217 64.8526 75C63.5222 75.0261 62.557 74.2435 62.4787 73.0696C62.4004 71.8957 63.2352 71.0087 64.5657 70.8783C68.3743 70.5131 70.4352 68.4522 70.8004 64.6435C70.9309 63.313 71.8178 62.4522 72.9917 62.5304C74.2439 62.5826 75.0004 63.5478 74.9743 64.9565Z" fill="#940106"/>
<path d="M64.9825 0.0260947C70.3303 0.15653 74.8694 4.72175 74.9999 10.0696C75.026 11.4783 74.2434 12.4435 73.0434 12.5217C71.8434 12.6 70.9825 11.7391 70.8521 10.3044C70.4868 6.65218 68.3738 4.53914 64.7216 4.20001C63.3129 4.06957 62.452 3.2087 62.5303 1.98262C62.5825 0.730442 63.5477 -0.0260792 64.9825 0.0260947Z" fill="#940106"/>
<path d="M27.0259 4.14786C25.6955 4.14786 24.3651 4.17395 23.0346 4.14786C21.7303 4.12177 20.8955 3.31308 20.8955 2.11308C20.8955 0.886991 21.7564 0.0261209 23.0868 3.39672e-05C25.7999 -0.026053 28.4868 -0.026053 31.1999 3.39672e-05C32.452 3.39672e-05 33.3651 0.88699 33.3651 2.03482C33.3912 3.18264 32.5042 4.09569 31.252 4.12177C29.8172 4.17395 28.4086 4.14786 27.0259 4.14786Z" fill="#940106"/>
<path d="M47.8433 4.14786C46.5129 4.14786 45.1824 4.17395 43.852 4.14786C42.5737 4.12177 41.6868 3.2609 41.6607 2.11308C41.6346 0.913078 42.5477 0.0261209 43.8781 3.39672e-05C46.5911 -0.026053 49.2781 -0.026053 51.9911 3.39672e-05C53.2694 3.39672e-05 54.1303 0.860904 54.1564 2.03482C54.1824 3.2609 53.3477 4.09569 51.9651 4.12177C50.5824 4.17395 49.2259 4.14786 47.8433 4.14786Z" fill="#940106"/>
<path d="M4.14783 27.1565C4.14783 28.4869 4.17391 29.8174 4.14783 31.1478C4.12174 32.4261 3.26087 33.313 2.11304 33.3391C0.939131 33.3652 0.026087 32.4522 0 31.1217C0 28.4348 0 25.7217 0.026087 23.0087C0.026087 21.7304 0.886957 20.8696 2.06087 20.8435C3.28696 20.8174 4.09565 21.6783 4.14783 23.0348C4.14783 23.087 4.14783 23.1652 4.14783 23.2174C4.14783 24.5478 4.14783 25.8522 4.14783 27.1565Z" fill="#940106"/>
<path d="M74.9997 27.0783C74.9997 28.4087 75.0258 29.7392 74.9997 31.0696C74.9736 32.4 74.1127 33.3131 72.9388 33.3392C71.7649 33.3392 70.878 32.4261 70.878 31.0957C70.8519 28.4348 70.8519 25.7479 70.878 23.087C70.878 21.7044 71.6867 20.8696 72.9127 20.8435C74.1649 20.8435 74.9997 21.7305 74.9997 23.1392C74.9997 24.4696 74.9997 25.7739 74.9997 27.0783Z" fill="#940106"/>
<path d="M70.8524 47.8435C70.8524 46.5653 70.8263 45.3131 70.8524 44.0348C70.8785 42.6261 71.6872 41.687 72.9133 41.687C74.1394 41.687 75.0002 42.6261 75.0002 44.0087C75.0263 46.6435 75.0263 49.2783 75.0002 51.9131C75.0002 53.2696 74.1394 54.1305 72.9394 54.1566C71.7133 54.1566 70.8785 53.3218 70.8524 51.9653C70.8263 50.5566 70.8524 49.2001 70.8524 47.8435Z" fill="#940106"/>
<path d="M47.9476 75C46.6172 75 45.2868 75.0261 43.9563 75C42.5737 74.9739 41.6346 74.087 41.6607 72.8609C41.6868 71.687 42.5998 70.8522 43.9563 70.8522C46.5911 70.8261 49.2259 70.8261 51.8607 70.8522C53.2955 70.8522 54.1563 71.687 54.1303 72.9653C54.1042 74.1653 53.2172 74.9739 51.8607 75C50.5563 75 49.252 75 47.9476 75Z" fill="#940106"/>
</g>
<defs>
<clipPath id="clip0_69_772">
<rect width="75" height="75" fill="white"/>
</clipPath>
</defs>
</svg>
