<svg width="191" height="35" viewBox="0 0 191 35" fill="none" xmlns="http://www.w3.org/2000/svg">
<g clip-path="url(#clip0_69_1713)">
<path d="M47.8511 0.5C48.6304 0.595609 49.4245 0.6618 50.1964 0.801536C55.7405 1.78704 60.1491 4.4788 63.0362 9.35486C64.8249 12.3776 65.5522 15.6871 65.1663 19.1511C64.3647 26.4541 60.1269 31.036 53.2839 33.4336C50.3151 34.4706 47.2276 34.6912 44.103 34.3456C40.4366 33.9411 37.0894 32.7202 34.18 30.4477C30.5358 27.6088 28.4058 23.9021 27.953 19.3202C27.2108 11.8039 31.3894 4.9642 38.4327 2.06652C40.5183 1.20604 42.678 0.705927 44.9269 0.558836C45.0382 0.551482 45.1421 0.522064 45.2534 0.5C46.1218 0.5 46.9827 0.5 47.8511 0.5ZM46.3741 31.1169C48.9124 31.139 51.3913 30.558 53.6921 29.1753C58.4644 26.2997 61.0546 22.1738 60.6909 16.5182C60.4905 13.4146 59.2659 10.686 57.1358 8.39877C54.0409 5.07452 50.1593 3.62568 45.6171 3.93457C41.6315 4.20668 38.2472 5.80262 35.694 8.85475C32.4878 12.6865 31.5304 17.0551 33.1187 21.8061C34.9741 27.3808 40.3327 31.0654 46.3741 31.1169Z" fill="black"/>
<path d="M0.202637 5.12598C1.46436 5.12598 2.71865 5.12598 4.0249 5.12598C4.0249 13.1498 4.0249 21.1736 4.0249 29.2415C11.0312 29.2415 17.9854 29.2415 24.962 29.2415C24.962 30.2417 24.962 31.1978 24.962 32.2054C16.7089 32.2054 8.45576 32.2054 0.202637 32.2054C0.202637 23.174 0.202637 14.15 0.202637 5.12598Z" fill="black"/>
<path d="M190.203 32.2054C181.957 32.2054 173.711 32.2054 165.436 32.2054C165.436 23.174 165.436 14.1647 165.436 5.12598C166.683 5.12598 167.937 5.12598 169.236 5.12598C169.236 13.1498 169.236 21.1736 169.236 29.2488C169.444 29.2488 169.6 29.2488 169.756 29.2488C176.406 29.2488 183.063 29.2488 189.713 29.2488C189.876 29.2488 190.032 29.2635 190.195 29.2635C190.203 30.2491 190.203 31.2272 190.203 32.2054Z" fill="black"/>
<path d="M70.2725 5.1113C70.3764 5.10394 70.4729 5.08923 70.5693 5.08923C76.299 5.08923 82.0213 5.08923 87.751 5.09659C89.4729 5.09659 91.1502 5.36871 92.7162 6.11887C95.1506 7.28088 96.4791 9.2519 96.9912 11.8407C97.5701 14.7384 96.16 18.2171 92.7607 19.9086C91.9814 20.2984 91.1502 20.5779 90.3041 20.9309C92.9166 24.7479 95.7814 28.4325 98.6611 32.2054C98.483 32.2054 98.3717 32.2054 98.2678 32.2054C96.8576 32.2054 95.4475 32.198 94.0373 32.2127C93.785 32.2127 93.6365 32.1318 93.4955 31.9333C90.8904 28.3369 88.2705 24.7479 85.6654 21.1515C85.4947 20.9235 85.324 20.8279 85.0346 20.8279C81.5686 20.8353 78.11 20.8353 74.6439 20.8353C74.5104 20.8353 74.3768 20.8353 74.1912 20.8353C74.1912 24.6302 74.1912 28.3957 74.1912 32.1907C72.8627 32.1907 71.5787 32.1907 70.2725 32.1907C70.2725 23.1667 70.2725 14.15 70.2725 5.1113ZM74.2061 8.29581C74.2061 11.4215 74.2061 14.503 74.2061 17.6066C74.3322 17.614 74.4436 17.6287 74.5475 17.6287C78.6889 17.6287 82.8303 17.6508 86.9717 17.614C87.8771 17.6066 88.8049 17.511 89.6807 17.2904C91.5807 16.8197 92.8053 15.29 92.9686 13.3557C93.1393 11.3479 92.2115 9.72994 90.408 8.89153C89.3764 8.41348 88.2779 8.29581 87.1572 8.29581C82.9787 8.29581 78.8002 8.29581 74.6217 8.29581C74.4955 8.29581 74.3619 8.29581 74.2061 8.29581Z" fill="black"/>
<path d="M163.283 32.2054C161.755 32.2054 160.285 32.2128 158.816 32.1907C158.704 32.1907 158.556 32.0363 158.496 31.9186C157.398 29.8005 156.307 27.675 155.231 25.5496C155.09 25.2701 154.934 25.1745 154.615 25.1745C149.323 25.1892 144.031 25.1892 138.739 25.1745C138.42 25.1745 138.264 25.2701 138.123 25.5496C137.062 27.6603 135.986 29.7637 134.925 31.8745C134.791 32.1392 134.65 32.2128 134.36 32.2128C133.062 32.1981 131.763 32.2054 130.464 32.2054C130.345 32.2054 130.226 32.2054 130.048 32.2054C130.13 32.0436 130.182 31.9186 130.241 31.8083C134.761 23.0123 139.289 14.2236 143.801 5.42022C143.92 5.18487 144.053 5.08191 144.335 5.08191C145.894 5.09662 147.453 5.09662 149.011 5.08191C149.249 5.08191 149.382 5.14075 149.501 5.36874C154.051 14.2162 158.6 23.0637 163.157 31.9112C163.187 31.9921 163.217 32.0657 163.283 32.2054ZM140.09 21.762C144.506 21.762 148.863 21.762 153.279 21.762C151.067 17.4522 148.87 13.1792 146.644 8.84008C144.447 13.1792 142.28 17.4522 140.09 21.762Z" fill="black"/>
<path d="M128.067 8.0384C121.305 8.0384 114.574 8.0384 107.805 8.0384C107.805 10.9582 107.805 13.8411 107.805 16.7609C112.874 16.7609 117.929 16.7609 123.012 16.7609C123.012 17.7611 123.012 18.7319 123.012 19.7542C117.958 19.7542 112.896 19.7542 107.805 19.7542C107.805 22.9387 107.805 26.0717 107.805 29.2342C114.559 29.2342 121.298 29.2342 128.067 29.2342C128.067 30.227 128.067 31.1831 128.067 32.176C119.94 32.176 111.791 32.176 103.619 32.176C103.619 23.174 103.619 14.1574 103.619 5.11865C111.768 5.11865 119.91 5.11865 128.074 5.11865C128.067 6.08945 128.067 7.05289 128.067 8.0384Z" fill="black"/>
<path d="M17.9409 14.6795C18.2229 13.9735 18.4901 13.319 18.7499 12.6644C19.7147 10.2521 20.6944 7.83983 21.6519 5.42019C21.7483 5.17749 21.8671 5.08923 22.1343 5.08923C23.2698 5.10394 24.4054 5.09659 25.5409 5.09659C25.6448 5.09659 25.7562 5.1113 25.9046 5.11865C25.8378 5.25839 25.7858 5.36871 25.7339 5.47167C24.1382 8.43555 22.5425 11.3921 20.9616 14.3633C20.8355 14.5986 20.7019 14.6943 20.4272 14.6869C19.6108 14.6648 18.8019 14.6795 17.9409 14.6795Z" fill="black"/>
<path d="M113.112 4.25813C114.136 3.11818 115.16 1.97823 116.199 0.845631C116.266 0.772086 116.407 0.720604 116.518 0.720604C118.708 0.713249 120.89 0.713249 123.079 0.720604C123.109 0.720604 123.139 0.735313 123.265 0.764731C119.843 1.97823 116.496 3.16231 113.149 4.34639C113.142 4.31697 113.127 4.28755 113.112 4.25813Z" fill="black"/>
</g>
<defs>
<clipPath id="clip0_69_1713">
<rect width="190" height="34" fill="white" transform="translate(0.202637 0.5)"/>
</clipPath>
</defs>
</svg>
