<svg width="95" height="95" viewBox="0 0 95 95" fill="none" xmlns="http://www.w3.org/2000/svg">
<g clip-path="url(#clip0_6_3)">
<path d="M40.21 43.6808C39.5544 43.4196 38.9534 43.2394 38.4161 42.9512C36.5676 41.9693 35.3747 40.456 34.8829 38.4383C34.7919 38.051 34.628 37.9789 34.2728 37.9879C32.4516 38.006 30.6304 37.997 28.8092 37.997C27.7984 37.997 27.3795 37.5826 27.3795 36.5647C27.3795 34.1147 27.3795 31.6736 27.3795 29.2235C27.3795 29.0614 27.3795 28.8992 27.3795 28.7011C27.2338 28.656 27.0881 28.611 26.9515 28.5659C24.6477 27.9174 23.045 25.8727 23.0086 23.5036C22.9903 22.0894 22.9995 20.6842 23.0086 19.27C23.0086 18.4503 23.473 18.009 24.3198 18.009C31.286 18.009 38.2522 18.009 45.2184 18.009C46.0015 18.009 46.5023 18.4593 46.5205 19.1529C46.5297 19.8465 46.0015 20.3239 45.2002 20.3239C38.8077 20.3239 32.4243 20.3239 26.0318 20.3239C25.8315 20.3239 25.6402 20.3239 25.3944 20.3239C25.3853 20.4771 25.3579 20.6032 25.3579 20.7293C25.3579 21.63 25.3488 22.5308 25.3579 23.4316C25.3762 25.0259 26.5235 26.26 28.1171 26.4221C28.3265 26.4401 28.5451 26.4491 28.7545 26.4491C41.239 26.4491 53.7326 26.4491 66.2171 26.4491C67.0093 26.4491 67.756 26.332 68.4116 25.8456C69.1037 25.3322 69.5681 24.6566 69.6137 23.8099C69.6774 22.6749 69.6319 21.531 69.6319 20.3419C69.4588 20.3329 69.304 20.3149 69.1401 20.3149C62.8569 20.3149 56.5737 20.3239 50.2905 20.3059C49.9262 20.3059 49.5074 20.1708 49.2069 19.9726C48.8062 19.7024 48.7607 19.234 48.9063 18.7926C49.052 18.3422 49.3981 18.081 49.8716 18.018C50.0355 18 50.2085 18.009 50.3724 18.009C57.0927 18.009 63.8131 18.009 70.5425 18.009C71.5897 18.009 71.9995 18.4143 71.9995 19.4502C71.9995 20.6932 71.9995 21.9453 71.9995 23.1884C71.9995 25.9177 70.4969 27.8724 67.8471 28.62C67.7924 28.638 67.7287 28.656 67.6285 28.692C67.6285 28.8542 67.6285 29.0343 67.6285 29.2145C67.6285 31.6916 67.6285 34.1687 67.6285 36.6458C67.6285 37.5646 67.2005 37.9879 66.2626 37.997C65.8619 37.997 65.4522 37.997 65.006 37.997C65.006 38.8887 65.0515 39.7264 64.9969 40.5641C64.9331 41.5009 64.8056 42.4377 64.6235 43.3565C64.5142 43.879 64.0043 44.1582 63.4852 44.1402C62.9844 44.1132 62.5564 43.7889 62.4198 43.3025C62.3743 43.1493 62.3379 42.9602 62.3925 42.8161C62.7932 41.618 62.6566 40.375 62.6748 39.1499C62.6839 38.7896 62.6748 38.4293 62.6748 38.006C61.8917 38.006 61.1359 37.997 60.3892 38.015C60.3163 38.015 60.2161 38.1681 60.1888 38.2672C59.5059 41.0415 57.7575 42.798 54.9892 43.5727C54.9346 43.5907 54.88 43.6177 54.8162 43.6448C54.8162 44.5005 54.8162 45.3562 54.8162 46.2029C54.8526 46.23 54.8709 46.266 54.8982 46.266C55.8998 46.266 56.9106 46.3471 57.8941 46.23C58.6226 46.1399 59.3511 45.8426 60.034 45.5544C60.717 45.2661 61.3726 45.3742 61.7095 45.9417C62.0556 46.5362 61.8552 47.2028 61.1905 47.5901C60.034 48.2477 58.7956 48.59 57.457 48.59C56.5919 48.59 55.7359 48.59 54.7889 48.59C54.7889 49.4457 54.7889 50.2654 54.7889 51.0851C54.7889 52.9317 54.798 54.7782 54.798 56.6248C54.798 57.3634 54.3154 57.8318 53.5687 57.8318C49.5347 57.8318 45.4916 57.8408 41.4575 57.8318C40.6653 57.8318 40.2282 57.3544 40.2282 56.5347C40.2282 52.4272 40.2282 48.3107 40.2282 44.2032C40.21 43.9961 40.21 43.8159 40.21 43.6808ZM65.2609 28.7821C53.3957 28.7821 41.585 28.7821 29.7653 28.7821C29.7653 31.0881 29.7653 33.358 29.7653 35.637C41.6124 35.637 53.423 35.637 65.2609 35.637C65.2609 33.34 65.2609 31.0791 65.2609 28.7821ZM42.5776 43.7709C42.5776 47.6892 42.5776 51.5715 42.5776 55.4538C45.8831 55.4538 49.1522 55.4538 52.4213 55.4538C52.4213 51.5445 52.4213 47.6712 52.4213 43.7709C49.134 43.7709 45.8831 43.7709 42.5776 43.7709ZM57.8394 38.015C50.9279 38.015 44.0801 38.015 37.1777 38.015C37.2414 38.2221 37.2961 38.3933 37.3598 38.5554C38.0519 40.2759 39.7456 41.4289 41.6579 41.4289C45.5553 41.4379 49.4618 41.4559 53.3592 41.4109C54.0513 41.4018 54.7798 41.2127 55.4081 40.9244C56.6465 40.366 57.4388 39.3661 57.8394 38.015Z" fill="#940106"/>
<path d="M47.5223 77.9999C41.3028 77.9999 35.0833 77.9999 28.8639 77.9999C27.7802 77.9999 27.3887 77.6036 27.3887 76.5317C27.3887 71.9198 27.3887 67.3169 27.3887 62.7049C27.3887 61.6691 27.7984 61.2637 28.8456 61.2637C29.9111 61.2637 30.9674 61.2547 32.0328 61.2637C34.0179 61.2817 35.5386 62.777 35.566 64.7497C35.5751 65.4703 35.566 66.1909 35.566 66.9115C35.566 67.7222 36.0213 68.1816 36.8226 68.1816C43.9527 68.1816 51.0828 68.1816 58.2129 68.1816C58.9869 68.1816 59.4422 67.7132 59.4513 66.9385C59.4604 66.1999 59.4422 65.4703 59.4513 64.7317C59.4695 62.795 60.9993 61.2817 62.9572 61.2637C64.0772 61.2547 65.2064 61.2547 66.3264 61.2637C67.1642 61.2727 67.6286 61.7231 67.6286 62.5428C67.6286 67.2718 67.6286 72.0008 67.6286 76.7299C67.6286 77.5676 67.1642 77.9999 66.2718 77.9999C60.0159 77.9999 53.7691 77.9999 47.5223 77.9999ZM29.7472 75.6489C41.6124 75.6489 53.4231 75.6489 65.2428 75.6489C65.2428 71.6135 65.2428 67.6231 65.2428 63.6237C65.1699 63.6057 65.1244 63.5877 65.0789 63.5877C64.3959 63.5877 63.713 63.5787 63.03 63.5877C62.256 63.5967 61.8007 64.0651 61.7916 64.8307C61.7825 65.5243 61.7916 66.2089 61.7916 66.9025C61.7825 69.0193 60.28 70.5056 58.1491 70.5056C51.0464 70.5056 43.9436 70.5056 36.8408 70.5056C34.7282 70.5056 33.2257 69.0373 33.1984 66.9475C33.1893 66.2089 33.2075 65.4793 33.1984 64.7407C33.1893 64.1822 32.8432 63.6778 32.3151 63.6327C31.4591 63.5697 30.6031 63.6147 29.738 63.6147C29.7472 67.6411 29.7472 71.6315 29.7472 75.6489Z" fill="#940106"/>
<path d="M40.2191 63.5516C45.0909 63.5516 49.908 63.5516 54.7889 63.5516C54.7889 63.2003 54.7889 62.858 54.7889 62.5247C54.798 59.1829 57.3477 56.6608 60.7261 56.6518C62.5655 56.6427 64.3958 56.6518 66.2353 56.6518C67.0912 56.6518 67.6194 57.0931 67.6194 57.8047C67.6285 58.5163 67.0912 58.9757 66.2535 58.9757C64.4322 58.9757 62.611 58.9757 60.7898 58.9757C58.6134 58.9847 57.1382 60.444 57.1291 62.5968C57.1291 62.8941 57.1291 63.2003 57.1291 63.4976C57.12 64.8667 56.1548 65.8576 54.7707 65.8936C54.3154 65.9116 53.86 65.8936 53.4047 65.8936C49.1067 65.8936 44.8177 65.8936 40.5196 65.8936C38.8076 65.8936 37.8697 64.9658 37.8697 63.2814C37.8697 62.804 37.897 62.3176 37.8151 61.8492C37.5328 60.1828 36.1304 58.9937 34.4094 58.9757C32.5608 58.9577 30.7032 58.9667 28.8547 58.9667C28.6999 58.9667 28.545 58.9757 28.3994 58.9487C27.7892 58.8586 27.3613 58.3632 27.3795 57.7687C27.3977 57.1742 27.853 56.6608 28.4722 56.6608C30.6121 56.6427 32.7521 56.5707 34.892 56.6878C37.8606 56.8589 40.1644 59.3721 40.21 62.3176C40.2191 62.7229 40.2191 63.1283 40.2191 63.5516Z" fill="#940106"/>
<path d="M52.7575 33.358C52.1201 33.358 51.601 32.8626 51.5919 32.232C51.5828 31.5655 52.0837 31.061 52.7484 31.061C53.4131 31.061 53.9231 31.5745 53.914 32.232C53.914 32.8536 53.3949 33.358 52.7575 33.358Z" fill="#940106"/>
<path d="M42.2867 31.061C42.9241 31.07 43.4249 31.5745 43.4249 32.214C43.4249 32.8626 42.8968 33.376 42.232 33.358C41.5855 33.34 41.0938 32.8355 41.0938 32.205C41.0938 31.5474 41.6128 31.052 42.2867 31.061Z" fill="#940106"/>
<path d="M46.3389 32.169C46.3571 31.5204 46.9035 31.034 47.5682 31.061C48.1966 31.088 48.6974 31.6195 48.6792 32.25C48.661 32.8625 48.1146 33.376 47.4954 33.367C46.8397 33.358 46.3116 32.8085 46.3389 32.169Z" fill="#940106"/>
<path d="M48.6783 52.0578C48.6692 52.6794 48.141 53.2018 47.5127 53.2018C46.8662 53.2018 46.3289 52.6613 46.338 52.0218C46.3471 51.3913 46.8662 50.8778 47.5036 50.8868C48.1501 50.8868 48.6874 51.4183 48.6783 52.0578Z" fill="#940106"/>
<path d="M47.4863 46.275C48.1419 46.266 48.6792 46.7794 48.6792 47.428C48.6792 48.0405 48.1601 48.563 47.5318 48.581C46.9126 48.599 46.3571 48.0856 46.3389 47.473C46.3116 46.8245 46.8307 46.284 47.4863 46.275Z" fill="#940106"/>
</g>
<circle cx="47.5" cy="47.5" r="45.75" stroke="#940106" stroke-width="3.5"/>
<defs>
<clipPath id="clip0_6_3">
<rect width="49" height="60" fill="white" transform="translate(23 18)"/>
</clipPath>
</defs>
</svg>
