<svg width="78" height="75" viewBox="0 0 78 75" fill="none" xmlns="http://www.w3.org/2000/svg">
<g clip-path="url(#clip0_69_791)">
<path d="M77.1125 35.2915C77.1125 36.759 77.1125 38.2264 77.1125 39.6791C77.0673 39.8846 77.0069 40.1047 76.9918 40.3101C76.6146 45.5488 75.2266 50.5234 72.5863 55.0871C65.4951 67.3694 54.6471 74.0462 40.1781 74.9266C33.9469 75.3082 27.8968 74.1636 22.2993 71.4488C8.55451 64.8161 1.08615 53.9718 0.0752803 39.0775C-0.377348 32.2686 1.19176 25.768 4.60156 19.7809C10.6064 9.24477 19.7193 2.81745 31.9252 0.586969C33.3736 0.322833 34.8522 0.190765 36.3157 0C37.8244 0 39.3332 0 40.8269 0C41.023 0.0440227 41.2191 0.10272 41.4153 0.117394C46.8166 0.469575 51.9464 1.86363 56.6688 4.40227C67.5319 10.2279 74.1704 19.0912 76.509 30.9626C76.7806 32.4007 76.9164 33.8535 77.1125 35.2915ZM17.9088 13.1041C20.5491 15.6721 23.1442 18.196 25.7845 20.764C25.8751 20.5879 25.9807 20.3678 26.1165 20.1624C26.7954 19.1939 27.4291 18.196 28.1835 17.3009C28.9378 16.4058 29.9638 16.0683 31.1557 16.3618C32.3326 16.6553 33.0718 17.389 33.3736 18.5189C33.6301 19.5461 33.3132 20.4412 32.6192 21.2336C31.6385 22.3489 30.9294 23.5962 30.7333 25.0636C30.7031 25.3424 30.7936 25.7386 30.9898 25.9294C33.6603 28.5707 36.3609 31.1974 39.0767 33.7948C39.2879 33.9855 39.6953 34.1323 39.9669 34.0882C43.8444 33.4866 46.711 30.0088 46.5602 26.1935C46.4847 24.1685 45.5945 22.5103 44.3272 20.9695C43.2861 19.6928 43.5125 17.9613 44.7346 16.9634C45.9868 15.9509 47.7672 16.0096 48.8686 17.1982C51.7955 20.3532 53.0176 24.0511 52.4443 28.2626C52.2934 29.3631 51.9615 30.4344 51.7201 31.5349C51.8106 31.5643 51.9012 31.5936 52.0068 31.6083C58.5548 32.7822 63.247 37.9329 63.6242 44.3896C63.7147 45.857 62.7793 47.119 61.3762 47.4565C59.973 47.794 58.5095 47.163 57.9362 45.8717C57.725 45.4168 57.6043 44.8885 57.5741 44.3896C57.2573 40.2074 53.3043 36.8176 48.7026 37.3312C47.1335 37.5073 45.7303 38.0503 44.5988 39.0188C50.9657 45.226 57.3025 51.3745 63.6242 57.523C73.1143 46.8402 74.6683 28.1452 61.7081 15.2906C49.5173 3.19898 30.3259 3.00822 17.9088 13.1041ZM13.5485 17.3449C3.31911 29.0843 3.03245 47.9114 15.7815 60.0323C29.315 72.9016 48.6875 70.8178 59.279 61.7638C56.9102 59.416 54.5415 57.0828 52.1878 54.7349C52.4594 57.1561 51.1166 58.829 48.9138 58.6969C45.3079 58.4915 42.2149 57.1415 39.65 54.6762C39.2879 54.324 38.956 53.9278 38.5788 53.5169C38.3374 53.7664 38.1564 53.9572 37.9753 54.1479C35.3802 56.9654 32.1213 58.4328 28.274 58.6823C26.554 58.7997 25.1509 57.6551 25.0151 56.1143C24.8491 54.4121 25.9656 53.0914 27.7308 52.8566C28.3042 52.7832 28.8775 52.7539 29.4357 52.6071C33.2831 51.668 36.0139 48.1755 35.4557 44.0814C35.0483 41.0585 33.3736 38.9014 30.4919 37.8155C27.5649 36.7003 24.7586 37.1405 22.3144 39.1362C20.4586 40.6476 19.6892 42.6873 19.4477 44.9912C19.2818 46.5907 17.7881 47.7059 16.2492 47.5298C14.5895 47.3391 13.4278 46.0331 13.5032 44.4189C13.7899 38.0796 18.6028 32.7382 25 31.6083C25.1659 31.5789 25.3168 31.5056 25.4375 31.4762C25.1961 30.4931 24.9849 29.5686 24.7133 28.6588C24.6077 28.2772 24.4267 27.881 24.14 27.6022C20.8056 24.3299 17.4411 21.0722 14.0917 17.8145C13.9106 17.6678 13.7296 17.521 13.5485 17.3449ZM49.9096 52.93C47.2089 50.3033 44.4177 47.5739 41.6567 44.8885C40.9627 48.8505 44.6893 52.4604 49.9096 52.93Z" fill="#940106"/>
</g>
<defs>
<clipPath id="clip0_69_791">
<rect width="77.1127" height="75" fill="white"/>
</clipPath>
</defs>
</svg>
