<svg width="86" height="75" viewBox="0 0 86 75" fill="none" xmlns="http://www.w3.org/2000/svg">
<g clip-path="url(#clip0_69_1706)">
<path d="M44.4087 0C46.5726 0.535714 48.8074 0.857143 50.9003 1.60714C61.2584 5.35714 67.8564 14.9643 67.8209 26.1071C67.8209 26.6429 67.8209 27.1786 67.8209 27.9286C70.304 28.1071 72.7517 28.2857 75.2348 28.5C74.0642 31.25 73.7449 31.5 71.1554 31.5C69.9138 31.5 68.6723 31.5 67.2533 31.5C65.125 39.5714 60.478 45.6071 52.9223 49.2143C47.7432 51.6786 42.2449 52.1786 36.6756 51.0357C27.027 49.0357 15.9594 40.2143 16.3141 23.75C13.9375 23.5714 11.5608 23.3571 9.18408 23.1786C9.85807 20.7857 10.6385 20.1071 12.6959 20.1071C14.0439 20.1071 15.7111 20.5357 16.6689 19.9286C17.5912 19.3214 17.7331 17.5714 18.2652 16.3571C22.2027 7.17857 29.0135 1.78571 38.804 0.285714C39.1587 0.25 39.478 0.107143 39.7973 0C41.3226 0 42.8834 0 44.4087 0ZM19.5422 23.8571C18.3006 33.9286 25.3243 46.8214 39.4071 48.5C50.9358 49.8571 63.8834 40.75 63.9189 31.3929C52.7094 31.3929 41.5 31.3929 30.255 31.3929C30.2196 31.25 30.1841 31.1071 30.1131 31C32.8091 29.1071 35.4696 27.25 38.5557 25.0714C31.8868 24.6071 25.75 24.25 19.5422 23.8571ZM64.9121 27.7857C65.2669 19.3571 62.429 12.5 55.831 7.60714C48.3462 2.03571 40.152 1.35714 31.8158 5.5C25.8564 8.46429 21.9898 13.3571 20.0743 20.2143C31.6385 20.2143 42.8479 20.2143 54.0574 20.2143C54.0929 20.3571 54.1283 20.5 54.1638 20.6786C51.5033 22.5357 48.8429 24.3929 45.7567 26.5714C52.3902 26.9643 58.527 27.3571 64.9121 27.7857Z" fill="black"/>
<path d="M0.0673828 67.8572C1.69914 63.4286 6.87819 61.6786 10.9931 64.2143C13.1924 65.5357 13.3697 67.75 13.1924 70C13.0505 72 12.2346 73.6429 10.1772 74.3929C9.64509 74.5715 9.11299 74.8215 8.5809 75.0357C7.41029 75.0357 6.20421 75.0357 5.0336 75.0357C2.44407 74.5 0.63495 73.1429 0.0673828 70.3929C0.0673828 69.5357 0.0673828 68.6786 0.0673828 67.8572ZM10.6738 69.1072C10.6738 66.5715 9.46772 65.4286 6.77177 65.4286C3.96941 65.3929 2.72786 66.5715 2.76333 69.1786C2.7988 71.6786 4.04036 72.8215 6.7363 72.7857C9.43225 72.75 10.6738 71.6072 10.6738 69.1072Z" fill="black"/>
<path d="M85.2026 74.6429C82.1519 74.6429 79.0658 74.6429 75.9087 74.6429C75.9087 70.9643 75.9087 67.3572 75.9087 63.6072C76.6182 63.6072 77.2921 63.6072 78.2499 63.6072C78.2499 66.5 78.2499 69.4286 78.2499 72.5C80.733 72.5 82.9678 72.5 85.2381 72.5C85.2026 73.2143 85.2026 73.9286 85.2026 74.6429Z" fill="black"/>
<path d="M59.5203 68C59.5203 68.7857 59.5203 69.2857 59.5203 69.9642C57.4628 69.9642 55.4054 69.9642 53.2061 69.9642C53.2061 70.8214 53.2061 71.5714 53.2061 72.5357C55.5118 72.5357 57.8176 72.5357 60.2297 72.5357C60.2297 73.3214 60.2297 73.8928 60.2297 74.6071C57.0726 74.6071 53.951 74.6071 50.6875 74.6071C50.6875 70.9642 50.6875 67.3571 50.6875 63.6428C53.8446 63.6428 56.9307 63.6428 60.1233 63.6428C60.1233 64.2857 60.1233 64.8928 60.1233 65.6428C57.7821 65.6428 55.5828 65.6428 53.2061 65.6428C53.2061 66.4643 53.2061 67.1071 53.2061 68.0357C55.299 68 57.3919 68 59.5203 68Z" fill="black"/>
<path d="M29.1907 71.1072C29.1907 72.4643 29.1907 73.5 29.1907 74.6072C28.3393 74.6072 27.6653 74.6072 26.814 74.6072C26.814 71 26.814 67.3929 26.814 63.6072C29.5099 63.6072 32.2768 63.4643 35.0082 63.6786C36.7819 63.8215 37.6687 65.4286 37.5623 67.5358C37.4559 69.6786 36.5336 70.9286 34.5825 71.0715C32.8444 71.2143 31.1062 71.1072 29.1907 71.1072ZM29.2261 69.1072C30.7869 69.1072 32.1704 69.2858 33.4474 69.0358C34.0859 68.8929 34.9727 67.9643 34.9727 67.3572C35.0082 66.7858 34.1214 65.7501 33.5184 65.6429C32.1349 65.3929 30.6805 65.5715 29.2261 65.5715C29.2261 66.8215 29.2261 67.8929 29.2261 69.1072Z" fill="black"/>
</g>
<defs>
<clipPath id="clip0_69_1706">
<rect width="85.1351" height="75" fill="white" transform="translate(0.0673828)"/>
</clipPath>
</defs>
</svg>
