<svg width="95" height="95" viewBox="0 0 95 95" fill="none" xmlns="http://www.w3.org/2000/svg">
<g clip-path="url(#clip0_6_4)">
<path d="M48.4817 20C48.8696 20.1682 49.2575 20.3003 49.5969 20.4925C57.5735 24.8889 65.5501 29.3093 73.5267 33.7177C74.6904 34.3664 75.8542 35.003 77.0179 35.6396C77.5998 35.964 78.012 36.3964 77.9998 37.0931C77.9877 37.7658 77.5634 38.1742 77.0058 38.4865C67.8291 43.5435 58.6403 48.6126 49.4757 53.6817C48.809 54.0541 48.215 54.0661 47.5361 53.6937C38.3715 48.6126 29.1948 43.5435 20.0181 38.4745C19.4363 38.1501 18.9998 37.7297 19.012 37.033C19.0241 36.3363 19.4605 35.9279 20.0545 35.6036C29.1585 30.5706 38.2624 25.5375 47.3664 20.5045C47.7058 20.3123 48.0816 20.1802 48.4817 20ZM23.6306 37.033C23.8852 37.2012 24.0307 37.2973 24.1883 37.3814C32.1285 41.7778 40.0687 46.1742 48.0089 50.5826C48.3726 50.7868 48.6392 50.7868 49.0029 50.5826C56.9431 46.1742 64.8833 41.7778 72.8236 37.3814C72.9811 37.2973 73.1387 37.1772 73.3448 37.033C73.1024 36.8769 72.9569 36.7808 72.7993 36.6967C64.8712 32.3123 56.9553 27.9279 49.0393 23.5315C48.6271 23.3033 48.3241 23.3514 47.9361 23.5676C40.9657 27.4354 33.9953 31.2913 27.0249 35.1471C25.9218 35.7477 24.8307 36.3604 23.6306 37.033Z" fill="#940106"/>
<path d="M27.1944 46.1022C25.9821 46.7748 24.8426 47.3995 23.6182 48.0841C23.9213 48.2643 24.1031 48.3844 24.285 48.4805C32.1524 52.8409 40.0199 57.1892 47.8874 61.5616C48.2874 61.7778 48.5905 61.8619 49.039 61.6097C56.955 57.2133 64.8709 52.8289 72.799 48.4445C72.9566 48.3604 73.1021 48.2523 73.3809 48.0841C72.1687 47.4115 71.0413 46.7989 69.8048 46.1142C70.8231 45.5496 71.7444 45.0211 72.6899 44.5526C72.8475 44.4685 73.1506 44.5766 73.3445 44.6847C74.5689 45.3454 75.7812 46.0301 76.9934 46.6907C77.5753 47.0031 78.0238 47.4235 78.0117 48.1322C77.9996 48.8049 77.5753 49.2133 77.0177 49.5256C73.7567 51.3274 70.4958 53.1292 67.2469 54.931C61.3797 58.1742 55.5124 61.4055 49.6694 64.6727C48.8572 65.1292 48.1783 65.1172 47.354 64.6727C38.3349 59.6397 29.3158 54.6547 20.2967 49.6697C20.1148 49.5736 19.9451 49.4775 19.7754 49.3694C18.745 48.7088 18.7329 47.4235 19.7754 46.8109C21.0968 46.0421 22.4423 45.3214 23.7879 44.5886C23.9455 44.5046 24.2001 44.4685 24.3456 44.5406C25.279 45.0331 26.1761 45.5496 27.1944 46.1022Z" fill="#940106"/>
<path d="M73.3687 59.1111C72.1564 58.4264 71.029 57.7897 69.7926 57.1051C70.823 56.5405 71.7685 56.012 72.7262 55.5195C72.8595 55.4474 73.1141 55.5555 73.2717 55.6396C74.5324 56.3243 75.7811 57.021 77.0297 57.7057C77.5873 58.018 78.0116 58.4384 77.9995 59.1111C77.9873 59.7837 77.5752 60.1921 77.0175 60.5045C71.1745 63.7357 65.3194 66.9669 59.4763 70.1981C56.1669 72.024 52.8454 73.8498 49.5481 75.6996C48.8207 76.1081 48.1782 76.096 47.4509 75.6996C38.2984 70.6186 29.146 65.5615 19.9814 60.5045C19.4116 60.1921 19.0116 59.7597 19.0237 59.099C19.0237 58.4264 19.4237 58.006 19.9935 57.6936C21.2179 57.033 22.4301 56.3603 23.6545 55.7117C23.8484 55.6036 24.1515 55.5075 24.3091 55.5795C25.2546 56.048 26.176 56.5765 27.1942 57.1411C25.9699 57.8138 24.8546 58.4384 23.6302 59.1111C23.8848 59.2672 24.0303 59.3753 24.2 59.4714C32.1402 63.8678 40.0804 68.2642 48.0206 72.6606C48.3479 72.8408 48.6025 72.8768 48.9541 72.6846C56.9064 68.2642 64.8708 63.8678 72.8232 59.4594C72.9686 59.3873 73.1141 59.2792 73.3687 59.1111Z" fill="#940106"/>
</g>
<circle cx="47.5" cy="47.5" r="45.75" stroke="#940106" stroke-width="3.5"/>
<defs>
<clipPath id="clip0_6_4">
<rect width="59" height="56" fill="white" transform="translate(19 20)"/>
</clipPath>
</defs>
</svg>
