<svg width="75" height="75" viewBox="0 0 75 75" fill="none" xmlns="http://www.w3.org/2000/svg">
<g clip-path="url(#clip0_69_799)">
<path d="M12.1719 75C10.7827 74.5114 10.313 73.4953 10.3326 72.0492C10.4109 68.9812 10.3522 65.9132 10.3522 62.8256C10.3522 61.106 11.1936 60.2657 12.9154 60.2657C16.144 60.2657 19.353 60.2462 22.5815 60.2657C24.3621 60.2853 25.4578 61.6922 24.8904 63.2165C24.5382 64.1349 23.8534 64.6235 22.875 64.643C21.7793 64.6625 20.6835 64.643 19.5878 64.6625C19.353 64.6625 19.1182 64.6821 18.8247 64.858C19.7834 65.4442 20.7422 66.05 21.7206 66.5971C41.1309 77.2472 65.7461 65.7178 69.9726 43.9682C71.5184 36.0343 70.3052 28.5109 66.4114 21.4174C66.2157 21.0656 66.0201 20.6748 65.9418 20.284C65.7461 19.2092 66.3723 18.1735 67.3506 17.8413C68.3877 17.4895 69.4443 17.8999 70.0313 18.9161C72.2032 22.6876 73.6707 26.7131 74.4143 31.0122C74.6491 32.3996 74.8056 33.8066 75.0013 35.1941C75.0013 36.7574 75.0013 38.3207 75.0013 39.884C74.9621 40.0794 74.9035 40.2553 74.8839 40.4507C74.6295 42.1899 74.473 43.9291 74.1208 45.6487C71.1075 60.168 58.6825 72.0492 44.0464 74.4137C42.6572 74.6482 41.2483 74.8045 39.8591 75C38.3524 75 36.8262 75 35.3196 75C35.1043 74.9609 34.8891 74.9023 34.6739 74.8827C27.6298 74.3551 21.251 72.0101 15.5374 67.8673C15.3222 67.711 15.0874 67.5547 14.7547 67.3202C14.7547 68.9812 14.696 70.5054 14.7743 72.0101C14.833 73.4757 14.3438 74.5114 12.9154 75C12.6611 75 12.4067 75 12.1719 75Z" fill="#940106"/>
<path d="M42.6351 22.2968C44.5918 22.9807 46.3528 23.9578 47.9181 25.2671C48.0551 25.3648 48.3682 25.3648 48.5443 25.2671C49.0726 25.013 49.5618 24.6808 50.0705 24.4072C51.2641 23.7624 52.4772 24.0555 53.1816 25.2084C54.16 26.8304 55.1188 28.4914 56.0384 30.1329C56.7233 31.364 56.4493 32.6733 55.1775 33.24C53.6317 33.9239 53.2012 34.8033 53.5339 36.4643C53.7687 37.6368 53.4947 38.9265 53.3969 40.1576C53.3578 40.5875 53.3773 40.822 53.7882 41.037C54.3361 41.3106 54.8644 41.6232 55.3731 41.9554C56.3711 42.6003 56.7233 43.7142 56.1558 44.7694C55.1775 46.5672 54.16 48.3455 53.0838 50.0847C52.4968 51.0617 51.2837 51.3158 50.2466 50.7882C49.6792 50.495 49.1509 50.1433 48.5834 49.8697C48.3878 49.772 48.0551 49.7916 47.8986 49.8893C47.0572 50.4169 46.2745 51.0617 45.4136 51.5698C44.5526 52.0584 43.6134 52.4296 42.6546 52.8986C42.6546 53.5631 42.6742 54.2861 42.6546 55.0091C42.6351 56.377 41.7154 57.2759 40.3458 57.2955C38.4673 57.315 36.5889 57.315 34.7105 57.2955C33.3408 57.2759 32.4407 56.3575 32.4211 54.9896C32.4016 54.2861 32.6364 53.4263 32.3233 52.9182C32.0298 52.4492 31.1297 52.371 30.5427 52.0388C29.4665 51.4135 28.4099 50.7686 27.412 50.0456C26.9815 49.7329 26.688 49.6938 26.2576 49.987C25.8075 50.2801 25.3379 50.5341 24.8683 50.7882C23.7334 51.3744 22.5399 51.0617 21.8941 49.9674C20.9158 48.3064 19.9375 46.6454 18.9982 44.9648C18.333 43.7923 18.6852 42.5808 19.8396 41.8773C20.4462 41.506 21.3071 41.291 21.5811 40.7634C21.855 40.2358 21.4832 39.4151 21.4832 38.7116C21.5028 37.4805 21.5224 36.2298 21.6789 34.9987C21.7376 34.4711 21.6202 34.2366 21.1897 34.0412C20.7006 33.8067 20.2505 33.5331 19.8005 33.24C18.7047 32.556 18.3525 31.3835 18.9787 30.2697C19.9375 28.55 20.9158 26.8304 21.9333 25.1498C22.5594 24.1141 23.7726 23.8015 24.8683 24.3682C25.5336 24.7199 26.1989 25.4038 26.8446 25.3648C27.4707 25.3257 28.0382 24.5245 28.6839 24.1532C29.7209 23.567 30.7775 23.0198 31.8733 22.5313C32.3233 22.3358 32.4603 22.1404 32.4407 21.691C32.4016 21.1243 32.4212 20.5771 32.4407 20.0104C32.4799 18.7793 33.3995 17.8413 34.6322 17.8413C36.5889 17.8218 38.5456 17.8218 40.4827 17.8413C41.735 17.8609 42.6351 18.7793 42.6742 20.03C42.6351 20.753 42.6351 21.5151 42.6351 22.2968ZM37.489 31.7157C34.2604 31.7157 31.6385 34.3538 31.6385 37.5977C31.6385 40.8025 34.2604 43.4015 37.4694 43.421C40.698 43.4406 43.3591 40.8025 43.3591 37.5782C43.3591 34.3343 40.7371 31.6962 37.489 31.7157Z" fill="#940106"/>
<path d="M60.2664 7.77747C60.2664 6.07736 60.2664 4.51405 60.2664 2.97027C60.2664 2.63807 60.2664 2.28632 60.3251 1.95412C60.5208 0.8598 61.5187 0.0976843 62.5753 0.156309C63.6711 0.234474 64.5711 1.07476 64.6103 2.18862C64.669 3.28294 64.6298 4.37726 64.6298 5.47158C64.6298 7.77747 64.6494 10.1029 64.6298 12.4088C64.6298 13.9526 63.7689 14.8124 62.2231 14.8319C58.9359 14.8515 55.6291 14.8515 52.3418 14.8319C51.07 14.8319 50.1895 14.1089 49.9742 12.9559C49.7981 11.9789 50.4047 10.9236 51.4026 10.5914C51.7352 10.4742 52.1266 10.4546 52.4788 10.4546C53.6528 10.4351 54.8268 10.4351 56.0008 10.4351C56.04 10.4351 56.0791 10.396 56.1769 10.3374C56.0204 10.2006 55.903 10.0834 55.7465 9.98565C49.4459 5.88195 42.5388 3.9278 35.0447 4.6313C21.9935 5.86241 12.5623 12.5065 7.20094 24.4268C2.83751 34.1584 3.50279 43.9096 8.43365 53.3676C8.66845 53.8171 8.94239 54.2665 9.05979 54.7551C9.2946 55.8103 8.70759 56.846 7.70968 57.2173C6.6922 57.6081 5.51818 57.2564 5.02901 56.2207C3.95283 54.0125 2.79838 51.8238 2.0157 49.518C-4.30441 30.9536 4.75507 10.5719 22.9327 3.10706C35.8078 -2.18866 48.1154 -0.64489 59.5816 7.30847C59.7577 7.42572 59.9338 7.54297 60.2664 7.77747Z" fill="#940106"/>
</g>
<defs>
<clipPath id="clip0_69_799">
<rect width="75" height="75" fill="white"/>
</clipPath>
</defs>
</svg>
