<svg width="158" height="68" viewBox="0 0 158 68" fill="none" xmlns="http://www.w3.org/2000/svg">
<path d="M26.5523 13.1857C25.9111 7.23266 21.9314 4.66573 16.2003 4.66573C11.5247 4.66573 6.84135 6.35881 6.84135 11.7892C6.84135 16.923 13.5107 17.6798 20.2348 19.2013C26.9041 20.7149 33.5656 23.0556 33.5656 31.2245C33.5656 40.0956 24.8478 43.6534 17.248 43.6534C7.89687 43.6534 0 39.1047 0 28.9462H5.26198C5.26198 35.9526 11.1104 38.9877 17.4279 38.9877C22.4553 38.9877 28.0144 37.4116 28.0144 31.4039C28.0144 25.3962 21.345 24.694 14.6835 23.235C8.01415 21.7682 1.29008 19.841 1.29008 12.1949C1.29008 3.73726 8.83511 0 16.4349 0C24.9729 0 31.4624 4.02594 31.8142 13.1857H26.5523Z" fill="#DB0032"/>
<path d="M65.2624 33.0892C63.9176 39.7445 59.1248 43.3647 52.3381 43.3647C42.6899 43.3647 38.1238 36.7094 37.8345 27.4872C37.8345 18.4444 43.8001 11.7892 52.0488 11.7892C62.7526 11.7892 66.0287 21.7682 65.7315 29.0633H43.0964C42.9244 34.3142 45.9034 38.9877 52.5101 38.9877C56.6071 38.9877 59.4688 37.0059 60.3445 33.097H65.2546L65.2624 33.0892ZM60.4696 24.6862C60.235 19.9581 56.6697 16.1662 51.7595 16.1662C46.5523 16.1662 43.4561 20.0751 43.1043 24.6862H60.4696Z" fill="#DB0032"/>
<path d="M76.1382 7.061H71.1655V0.990875H76.1382V7.061ZM71.1655 12.4913H76.1382V42.6625H71.1655V12.4913Z" fill="#DB0032"/>
<path d="M110.877 42.6625H105.904V38.5742H105.787C104.153 41.8979 100.29 43.3569 96.1384 43.3569C86.842 43.3569 82.2212 35.9994 82.2212 27.4794C82.2212 18.9594 86.7873 11.7813 96.0212 11.7813C99.1252 11.7813 103.566 12.9517 105.787 16.5095H105.904V0.990875H110.877V42.6625ZM96.8421 38.9877C103.511 38.9877 106.084 33.2687 106.084 27.6042C106.084 21.6512 103.394 16.1662 96.5528 16.1662C89.7115 16.1662 87.4832 21.9398 87.4832 27.8383C87.4832 33.7368 90.4074 38.9877 96.8421 38.9877Z" fill="#DB0032"/>
<path d="M144.325 33.0892C142.98 39.7445 138.187 43.3647 131.401 43.3647C121.752 43.3647 117.186 36.7094 116.897 27.4872C116.897 18.4444 122.863 11.7892 131.111 11.7892C141.815 11.7892 145.091 21.7682 144.794 29.0633H122.159C121.987 34.3142 124.966 38.9877 131.573 38.9877C135.67 38.9877 138.531 37.0059 139.407 33.097H144.317L144.325 33.0892ZM139.532 24.6862C139.298 19.9581 135.732 16.1662 130.814 16.1662C125.607 16.1662 122.511 20.0751 122.159 24.6862H139.532Z" fill="#DB0032"/>
<path d="M150.228 0.990875H155.201V42.6625H150.228V0.990875Z" fill="#DB0032"/>
<path d="M76.42 63.713C75.1142 63.713 74.0587 63.2605 73.2534 62.3476C72.4481 61.4426 72.0415 60.2489 72.0415 58.7742C72.0415 57.2996 72.4559 56.0981 73.2769 55.1852C74.0978 54.2724 75.1768 53.8198 76.506 53.8198C77.5302 53.8198 78.4137 54.1085 79.1565 54.6781C79.8993 55.2554 80.3293 55.9888 80.4544 56.8861H79.2269C79.1096 56.2619 78.8047 55.786 78.3199 55.4505C77.8351 55.115 77.2018 54.9433 76.4278 54.9433C75.513 54.9433 74.7702 55.2944 74.1995 56.0044C73.6287 56.7144 73.3472 57.6429 73.3472 58.7898C73.3472 60.007 73.6209 60.9511 74.1682 61.622C74.7155 62.293 75.4895 62.6207 76.4825 62.6207C77.4755 62.6207 78.2339 62.2696 78.8281 61.5596C78.9219 61.4504 79.008 61.3334 79.0861 61.2085C79.1878 61.0447 79.2738 60.8106 79.3442 60.5141C79.4145 60.2176 79.4458 59.929 79.4458 59.6637V59.5466H76.4982V58.4777H80.6108V63.44H79.8211L79.5162 62.2618L79.4458 62.3476C78.6718 63.2527 77.6631 63.7052 76.4043 63.7052L76.42 63.713Z" fill="#002F87"/>
<path d="M82.7529 54.0771H87.1236C88.1244 54.0771 88.8828 54.2956 89.3988 54.7247C89.9148 55.1539 90.1807 55.7858 90.1807 56.6207C90.1807 57.4555 89.907 58.0875 89.3675 58.5478C89.2346 58.6649 89.0861 58.7663 88.9297 58.8521L89.1408 58.9535C89.7116 59.2812 90.0087 59.8352 90.0321 60.6076L90.0869 62.3163C90.0947 62.5972 90.1338 62.8 90.1963 62.9249C90.2589 63.0497 90.384 63.1511 90.5638 63.2448V63.4476H89.0001C88.9688 63.3696 88.9297 63.1745 88.8984 62.8468C88.8671 62.527 88.8359 62.168 88.8202 61.7701L88.789 61.0289C88.7733 60.4438 88.6326 60.0302 88.3589 59.7806C88.0931 59.5309 87.6553 59.4061 87.0454 59.4061H84.0274V63.4554H82.7529V54.0771ZM84.0274 58.3138H87.1705C87.7569 58.3138 88.1869 58.1811 88.4606 57.9314C88.7342 57.674 88.8671 57.2683 88.8671 56.7065C88.8671 56.1447 88.7264 55.7702 88.4371 55.5206C88.1478 55.2709 87.6943 55.1461 87.0688 55.1461H84.0196V58.3138H84.0274Z" fill="#002F87"/>
<path d="M92.8394 62.3475C91.995 61.4425 91.5728 60.2487 91.5728 58.7741C91.5728 57.2995 91.995 56.0979 92.8394 55.1851C93.6838 54.2722 94.7862 53.8197 96.1545 53.8197C97.5228 53.8197 98.633 54.2722 99.4774 55.1851C100.322 56.0979 100.744 57.2917 100.744 58.7741C100.744 60.2565 100.322 61.4425 99.4774 62.3475C98.633 63.2526 97.5306 63.7129 96.1545 63.7129C94.7784 63.7129 93.6838 63.2604 92.8394 62.3475ZM98.5236 61.5361C99.1256 60.8339 99.4227 59.9132 99.4227 58.7741C99.4227 57.635 99.1256 56.7065 98.5236 56.0043C97.9215 55.3021 97.1318 54.951 96.1545 54.951C95.1772 54.951 94.3875 55.3021 93.7854 56.0043C93.1834 56.7065 92.8863 57.635 92.8863 58.7741C92.8863 59.9132 93.1834 60.8339 93.7854 61.5361C94.3875 62.2383 95.1772 62.5894 96.1545 62.5894C97.1318 62.5894 97.9293 62.2383 98.5236 61.5361Z" fill="#002F87"/>
<path d="M109.681 60.0146C109.681 61.1694 109.352 62.0744 108.703 62.7298C108.054 63.3852 107.147 63.7129 105.982 63.7129C104.817 63.7129 103.856 63.4008 103.23 62.7688C102.597 62.1368 102.284 61.224 102.284 60.0146V54.0771H103.559V59.921C103.559 60.7949 103.762 61.458 104.176 61.9106C104.591 62.3631 105.193 62.5894 105.982 62.5894C106.772 62.5894 107.374 62.3631 107.789 61.9106C108.203 61.458 108.406 60.7949 108.406 59.921V54.0771H109.681V60.0146Z" fill="#002F87"/>
<path d="M111.831 54.0772H115.943C116.858 54.0772 117.569 54.3034 118.078 54.7638C118.594 55.2241 118.852 55.8561 118.852 56.6597C118.852 57.5492 118.594 58.2436 118.078 58.7429C117.562 59.2422 116.85 59.4919 115.943 59.4919C114.747 59.4919 113.801 59.4919 113.105 59.5075V63.4476H111.831V54.0694V54.0772ZM113.105 58.4152H115.63C116.295 58.4152 116.772 58.2748 117.085 57.9939C117.39 57.713 117.546 57.2761 117.546 56.6831C117.546 56.1526 117.39 55.7703 117.085 55.5206C116.78 55.2787 116.295 55.1539 115.63 55.1539H113.105V58.4074V58.4152Z" fill="#002F87"/>
<path d="M138.031 60.0146C138.031 61.1694 137.703 62.0744 137.054 62.7298C136.405 63.3852 135.498 63.7129 134.333 63.7129C133.168 63.7129 132.206 63.4008 131.581 62.7688C130.948 62.1368 130.635 61.224 130.635 60.0146V54.0771H131.909V59.921C131.909 60.7949 132.112 61.458 132.527 61.9106C132.941 62.3631 133.543 62.5894 134.333 62.5894C135.123 62.5894 135.725 62.3631 136.139 61.9106C136.554 61.458 136.757 60.7949 136.757 59.921V54.0771H138.031V60.0146Z" fill="#002F87"/>
<path d="M145.78 56.7923C145.725 56.1994 145.49 55.7468 145.076 55.4269C144.662 55.1071 144.114 54.9432 143.418 54.9432C142.723 54.9432 142.16 55.0836 141.784 55.3567C141.409 55.6298 141.229 56.0355 141.229 56.5661C141.229 56.925 141.354 57.1981 141.597 57.3775C141.847 57.557 142.34 57.7364 143.09 57.9081L144.724 58.2982C145.6 58.5088 146.233 58.8131 146.601 59.2266C146.976 59.6323 147.164 60.2019 147.164 60.9431C147.164 61.7936 146.843 62.4645 146.194 62.9639C145.545 63.4632 144.669 63.7129 143.567 63.7129C142.34 63.7129 141.378 63.4242 140.69 62.8547C140.017 62.2929 139.681 61.5127 139.681 60.5296V60.4594H140.854C140.877 61.1382 141.12 61.6609 141.597 62.0354C142.074 62.4021 142.73 62.5894 143.575 62.5894C144.357 62.5894 144.951 62.4567 145.35 62.1837C145.756 61.9184 145.96 61.5205 145.96 61.0055C145.96 60.553 145.827 60.2253 145.561 60.0069C145.295 59.7962 144.763 59.5933 143.958 59.3983L142.316 59.0082C141.487 58.8131 140.893 58.54 140.541 58.1889C140.189 57.8378 140.01 57.3541 140.01 56.7377C140.01 55.8405 140.314 55.1305 140.924 54.5999C141.534 54.0772 142.363 53.8119 143.403 53.8119C144.443 53.8119 145.303 54.0772 145.928 54.5999C146.554 55.1227 146.89 55.8561 146.929 56.7845H145.756L145.78 56.7923Z" fill="#002F87"/>
<path d="M151.526 54.0771H152.981L156.358 63.4554H154.99L154.028 60.7402H150.275L149.29 63.4554H147.977L151.526 54.0771ZM150.682 59.6167H153.637L152.191 55.4581L150.682 59.6167Z" fill="#002F87"/>
<path d="M0 59.5309H65.2626" stroke="#DB0032" stroke-miterlimit="10"/>
<rect x="125.311" y="53.0656" width="1.36207" height="12.2459" fill="#58595B"/>
</svg>
